<svg xmlns="http://www.w3.org/2000/svg" xmlns:xlink="http://www.w3.org/1999/xlink" width="500" zoomAndPan="magnify" viewBox="0 0 375 374.999991" height="500" preserveAspectRatio="xMidYMid meet" version="1.0"><defs><clipPath id="558064fa8f"><path d="M 23.648438 87 L 344 87 L 344 308 L 23.648438 308 Z M 23.648438 87 " clip-rule="nonzero"/></clipPath><clipPath id="f7b6547b1a"><path d="M 313 67 L 351.398438 67 L 351.398438 105 L 313 105 Z M 313 67 " clip-rule="nonzero"/></clipPath></defs><path fill="#f57c02" d="M 182.394531 248.503906 L 292.984375 248.503906 L 292.984375 262.378906 L 182.394531 262.378906 Z M 182.394531 248.503906 " fill-opacity="1" fill-rule="nonzero"/><path fill="#f57c02" d="M 251.769531 221.570312 L 292.984375 221.570312 L 292.984375 235.445312 L 251.769531 235.445312 Z M 251.769531 221.570312 " fill-opacity="1" fill-rule="nonzero"/><g clip-path="url(#558064fa8f)"><path fill="#f57c02" d="M 327.265625 113.429688 C 328.082031 112.613281 328.082031 110.980469 327.265625 109.757812 L 308.902344 91.394531 C 308.492188 90.984375 307.675781 90.578125 307.269531 90.578125 C 306.859375 90.578125 306.042969 90.984375 305.636719 91.394531 L 193.003906 203.617188 C 192.1875 204.433594 192.1875 206.066406 193.003906 207.289062 L 196.675781 210.960938 L 184.433594 223.203125 C 181.578125 226.0625 181.578125 230.140625 184.433594 233 C 185.660156 234.222656 187.699219 235.039062 189.332031 235.039062 C 190.964844 235.039062 193.003906 234.222656 194.230469 233 L 207.695312 219.53125 C 209.328125 220.347656 211.367188 220.347656 213 220.347656 C 217.488281 220.347656 221.570312 218.714844 224.425781 215.449219 L 287.679688 152.199219 L 329.304688 152.199219 L 329.304688 282.785156 C 329.304688 288.496094 324.40625 293.394531 318.695312 293.394531 L 155.867188 293.394531 C 163.621094 285.234375 168.519531 274.214844 168.519531 261.972656 L 168.519531 149.75 L 217.898438 149.75 C 221.570312 149.75 224.835938 146.484375 224.835938 142.8125 C 224.835938 139.140625 221.980469 136.28125 217.898438 136.28125 L 168.519531 136.28125 L 168.519531 133.019531 C 168.519531 108.125 148.117188 87.71875 123.222656 87.71875 L 23.648438 87.71875 L 23.648438 230.957031 L 74.660156 230.957031 L 74.660156 307.679688 L 319.101562 307.679688 C 332.570312 307.679688 343.179688 296.660156 343.179688 283.191406 L 343.179688 138.730469 L 301.964844 138.730469 Z M 85.269531 190.148438 C 73.027344 190.148438 62.824219 181.578125 62.824219 170.5625 L 76.699219 170.5625 C 76.699219 173.417969 80.375 176.273438 85.269531 176.273438 L 97.511719 176.273438 C 102.410156 176.273438 106.082031 173.417969 106.082031 170.5625 L 106.082031 169.746094 C 106.082031 169.746094 104.859375 168.113281 101.59375 166.480469 L 92.207031 164.847656 L 77.515625 161.992188 L 75.882812 161.582031 L 75.070312 161.175781 C 66.90625 157.09375 62.417969 151.789062 62.417969 145.261719 L 62.417969 144.445312 C 62.417969 133.835938 72.621094 124.855469 84.863281 124.855469 L 85.269531 124.855469 L 85.269531 118.734375 L 99.554688 118.734375 L 99.554688 125.265625 C 110.980469 126.082031 120.367188 134.242188 120.367188 144.445312 L 106.492188 144.445312 C 106.492188 141.585938 102.816406 138.730469 97.921875 138.730469 L 85.679688 138.730469 C 80.78125 138.730469 77.109375 141.585938 77.109375 144.445312 L 77.109375 145.261719 C 77.109375 145.261719 77.925781 146.484375 81.191406 148.523438 L 96.289062 151.382812 L 106.492188 153.421875 L 107.308594 153.832031 C 117.917969 159.136719 119.957031 165.664062 119.957031 169.746094 L 119.957031 170.5625 C 119.957031 180.765625 110.980469 188.925781 99.144531 189.742188 L 99.144531 196.679688 L 85.269531 196.679688 Z M 123.222656 293.804688 L 88.535156 293.804688 L 88.535156 230.957031 L 123.222656 230.957031 C 140.363281 230.957031 154.644531 244.832031 154.644531 262.378906 C 154.644531 279.929688 140.769531 293.804688 123.222656 293.804688 Z M 123.222656 293.804688 " fill-opacity="1" fill-rule="nonzero"/></g><g clip-path="url(#f7b6547b1a)"><path fill="#f57c02" d="M 332.160156 68.132812 C 331.753906 67.722656 330.9375 67.316406 330.527344 67.316406 C 330.121094 67.316406 329.304688 67.722656 328.898438 68.132812 L 314.613281 82.414062 C 314.207031 82.824219 313.796875 83.640625 313.796875 84.046875 C 313.796875 84.457031 314.207031 85.273438 314.613281 85.679688 L 332.976562 104.042969 C 333.386719 104.453125 334.203125 104.859375 334.609375 104.859375 C 335.019531 104.859375 335.835938 104.453125 336.242188 104.042969 L 350.523438 89.761719 C 351.339844 88.945312 351.339844 87.3125 350.523438 86.089844 Z M 332.160156 68.132812 " fill-opacity="1" fill-rule="nonzero"/></g></svg>