<svg xmlns="http://www.w3.org/2000/svg" xmlns:xlink="http://www.w3.org/1999/xlink" width="600" zoomAndPan="magnify" viewBox="0 0 450 337.499995" height="450" preserveAspectRatio="xMidYMid meet" version="1.0"><defs><clipPath id="7e17a696e3"><path d="M 60 271 L 397.683594 271 L 397.683594 292.710938 L 60 292.710938 Z M 60 271 " clip-rule="nonzero"/></clipPath><clipPath id="1217b2dfbe"><path d="M 52.445312 175 L 63 175 L 63 186 L 52.445312 186 Z M 52.445312 175 " clip-rule="nonzero"/></clipPath><clipPath id="ffe317fceb"><path d="M 364 44.078125 L 367 44.078125 L 367 53 L 364 53 Z M 364 44.078125 " clip-rule="nonzero"/></clipPath><clipPath id="4653e2c151"><path d="M 403.039062 27.167969 L 449.667969 27.167969 L 449.667969 168.710938 L 403.039062 168.710938 Z M 403.039062 27.167969 " clip-rule="nonzero"/></clipPath><clipPath id="b7ffc8babf"><path d="M 0.332031 131.734375 L 52.457031 131.734375 L 52.457031 273.273438 L 0.332031 273.273438 Z M 0.332031 131.734375 " clip-rule="nonzero"/></clipPath></defs><g clip-path="url(#7e17a696e3)"><path fill="#000000" d="M 397.683594 281.855469 C 397.683594 282.03125 397.617188 282.210938 397.480469 282.386719 C 397.34375 282.5625 397.140625 282.742188 396.871094 282.917969 C 396.601562 283.09375 396.261719 283.269531 395.859375 283.445312 C 395.453125 283.621094 394.980469 283.796875 394.441406 283.96875 C 393.902344 284.144531 393.296875 284.316406 392.628906 284.488281 C 391.957031 284.660156 391.21875 284.832031 390.417969 285 C 389.617188 285.171875 388.75 285.339844 387.820312 285.503906 C 386.890625 285.671875 385.898438 285.839844 384.839844 286 C 383.785156 286.164062 382.664062 286.328125 381.484375 286.488281 C 380.304688 286.648438 379.0625 286.808594 377.761719 286.964844 C 376.460938 287.121094 375.097656 287.273438 373.679688 287.425781 C 372.261719 287.578125 370.785156 287.726562 369.25 287.875 C 367.714844 288.023438 366.125 288.167969 364.480469 288.308594 C 362.835938 288.453125 361.136719 288.59375 359.386719 288.730469 C 357.632812 288.867188 355.832031 289 353.976562 289.132812 C 352.121094 289.265625 350.21875 289.390625 348.265625 289.515625 C 346.3125 289.644531 344.316406 289.765625 342.269531 289.882812 C 340.222656 290.003906 338.132812 290.121094 336 290.230469 C 333.863281 290.34375 331.6875 290.453125 329.46875 290.558594 C 327.253906 290.664062 324.996094 290.765625 322.699219 290.863281 C 320.402344 290.964844 318.070312 291.058594 315.703125 291.148438 C 313.335938 291.242188 310.933594 291.328125 308.496094 291.410156 C 306.0625 291.496094 303.597656 291.574219 301.101562 291.652344 C 298.605469 291.726562 296.082031 291.796875 293.53125 291.867188 C 290.980469 291.933594 288.402344 292 285.804688 292.058594 C 283.203125 292.117188 280.582031 292.171875 277.941406 292.226562 C 275.296875 292.277344 272.636719 292.324219 269.960938 292.367188 C 267.28125 292.410156 264.585938 292.449219 261.878906 292.484375 C 259.171875 292.519531 256.453125 292.546875 253.71875 292.574219 C 250.988281 292.601562 248.25 292.621094 245.5 292.640625 C 242.753906 292.65625 240 292.667969 237.242188 292.679688 C 234.484375 292.6875 231.726562 292.691406 228.964844 292.691406 C 226.203125 292.691406 223.441406 292.6875 220.683594 292.679688 C 217.925781 292.667969 215.175781 292.65625 212.425781 292.640625 C 209.679688 292.621094 206.9375 292.601562 204.207031 292.574219 C 201.476562 292.546875 198.757812 292.519531 196.046875 292.484375 C 193.339844 292.449219 190.648438 292.410156 187.96875 292.367188 C 185.289062 292.324219 182.628906 292.277344 179.988281 292.226562 C 177.34375 292.171875 174.722656 292.117188 172.125 292.058594 C 169.523438 292 166.949219 291.933594 164.398438 291.867188 C 161.847656 291.796875 159.324219 291.726562 156.828125 291.652344 C 154.332031 291.574219 151.863281 291.496094 149.429688 291.410156 C 146.996094 291.328125 144.59375 291.242188 142.226562 291.148438 C 139.855469 291.058594 137.523438 290.964844 135.226562 290.863281 C 132.933594 290.765625 130.675781 290.664062 128.457031 290.558594 C 126.238281 290.453125 124.0625 290.34375 121.929688 290.230469 C 119.792969 290.121094 117.703125 290.003906 115.660156 289.882812 C 113.613281 289.765625 111.613281 289.644531 109.660156 289.515625 C 107.707031 289.390625 105.804688 289.265625 103.949219 289.132812 C 102.097656 289 100.292969 288.867188 98.542969 288.730469 C 96.789062 288.59375 95.089844 288.453125 93.445312 288.308594 C 91.800781 288.167969 90.210938 288.023438 88.679688 287.875 C 87.144531 287.726562 85.667969 287.578125 84.25 287.425781 C 82.828125 287.273438 81.46875 287.121094 80.167969 286.964844 C 78.863281 286.808594 77.625 286.648438 76.441406 286.488281 C 75.261719 286.328125 74.144531 286.164062 73.085938 286 C 72.03125 285.839844 71.035156 285.671875 70.105469 285.503906 C 69.175781 285.339844 68.3125 285.171875 67.507812 285 C 66.707031 284.832031 65.972656 284.660156 65.300781 284.488281 C 64.628906 284.316406 64.023438 284.144531 63.484375 283.96875 C 62.949219 283.796875 62.476562 283.621094 62.070312 283.445312 C 61.664062 283.269531 61.328125 283.09375 61.054688 282.917969 C 60.785156 282.742188 60.582031 282.5625 60.449219 282.386719 C 60.3125 282.210938 60.242188 282.03125 60.242188 281.855469 C 60.242188 281.675781 60.3125 281.5 60.449219 281.324219 C 60.582031 281.144531 60.785156 280.96875 61.054688 280.792969 C 61.328125 280.617188 61.664062 280.441406 62.070312 280.265625 C 62.476562 280.089844 62.949219 279.914062 63.484375 279.742188 C 64.023438 279.566406 64.628906 279.394531 65.300781 279.222656 C 65.972656 279.050781 66.707031 278.878906 67.507812 278.710938 C 68.3125 278.539062 69.175781 278.371094 70.105469 278.203125 C 71.035156 278.039062 72.03125 277.871094 73.085938 277.707031 C 74.144531 277.542969 75.261719 277.382812 76.441406 277.222656 C 77.625 277.0625 78.863281 276.902344 80.167969 276.746094 C 81.46875 276.589844 82.828125 276.4375 84.25 276.285156 C 85.667969 276.132812 87.144531 275.980469 88.679688 275.835938 C 90.210938 275.6875 91.800781 275.542969 93.445312 275.398438 C 95.089844 275.257812 96.789062 275.117188 98.542969 274.980469 C 100.292969 274.84375 102.097656 274.707031 103.949219 274.578125 C 105.804688 274.445312 107.707031 274.316406 109.660156 274.191406 C 111.613281 274.066406 113.613281 273.945312 115.660156 273.824219 C 117.703125 273.707031 119.792969 273.589844 121.929688 273.476562 C 124.0625 273.367188 126.238281 273.257812 128.457031 273.152344 C 130.675781 273.046875 132.933594 272.941406 135.226562 272.84375 C 137.523438 272.746094 139.855469 272.652344 142.226562 272.558594 C 144.59375 272.46875 146.996094 272.382812 149.429688 272.296875 C 151.863281 272.214844 154.332031 272.132812 156.828125 272.058594 C 159.324219 271.984375 161.847656 271.910156 164.398438 271.84375 C 166.949219 271.773438 169.523438 271.710938 172.125 271.652344 C 174.722656 271.59375 177.34375 271.535156 179.988281 271.484375 C 182.628906 271.433594 185.289062 271.386719 187.96875 271.34375 C 190.648438 271.300781 193.339844 271.261719 196.046875 271.226562 C 198.757812 271.191406 201.476562 271.160156 204.207031 271.136719 C 206.9375 271.109375 209.679688 271.085938 212.425781 271.070312 C 215.175781 271.054688 217.925781 271.039062 220.683594 271.03125 C 223.441406 271.023438 226.203125 271.019531 228.964844 271.019531 C 231.726562 271.019531 234.484375 271.023438 237.242188 271.03125 C 240 271.039062 242.753906 271.054688 245.5 271.070312 C 248.25 271.085938 250.988281 271.109375 253.71875 271.136719 C 256.453125 271.160156 259.171875 271.191406 261.878906 271.226562 C 264.585938 271.261719 267.28125 271.300781 269.960938 271.34375 C 272.636719 271.386719 275.296875 271.433594 277.941406 271.484375 C 280.582031 271.535156 283.203125 271.59375 285.804688 271.652344 C 288.402344 271.710938 290.980469 271.773438 293.53125 271.84375 C 296.082031 271.910156 298.605469 271.984375 301.101562 272.058594 C 303.597656 272.132812 306.0625 272.214844 308.496094 272.296875 C 310.933594 272.382812 313.335938 272.46875 315.703125 272.558594 C 318.070312 272.652344 320.402344 272.746094 322.699219 272.84375 C 324.996094 272.941406 327.253906 273.046875 329.46875 273.152344 C 331.6875 273.257812 333.863281 273.367188 336 273.476562 C 338.132812 273.589844 340.222656 273.707031 342.269531 273.824219 C 344.316406 273.945312 346.3125 274.066406 348.265625 274.191406 C 350.21875 274.316406 352.121094 274.445312 353.976562 274.578125 C 355.832031 274.707031 357.632812 274.84375 359.386719 274.980469 C 361.136719 275.117188 362.835938 275.257812 364.480469 275.398438 C 366.125 275.542969 367.714844 275.6875 369.25 275.835938 C 370.785156 275.980469 372.261719 276.132812 373.679688 276.285156 C 375.097656 276.4375 376.460938 276.589844 377.761719 276.746094 C 379.0625 276.902344 380.304688 277.0625 381.484375 277.222656 C 382.664062 277.382812 383.785156 277.542969 384.839844 277.707031 C 385.898438 277.871094 386.890625 278.039062 387.820312 278.203125 C 388.75 278.371094 389.617188 278.539062 390.417969 278.710938 C 391.21875 278.878906 391.957031 279.050781 392.628906 279.222656 C 393.296875 279.394531 393.902344 279.566406 394.441406 279.742188 C 394.980469 279.914062 395.453125 280.089844 395.859375 280.265625 C 396.261719 280.441406 396.601562 280.617188 396.871094 280.792969 C 397.140625 280.96875 397.34375 281.144531 397.480469 281.324219 C 397.617188 281.5 397.683594 281.675781 397.683594 281.855469 Z M 397.683594 281.855469 " fill-opacity="0.15" fill-rule="nonzero"/></g><path fill="#cf2959" d="M 363.636719 92.398438 C 363.796875 93.335938 363.9375 94.277344 364.0625 95.21875 C 364.902344 101.671875 365.015625 108.132812 364.394531 114.609375 C 364.300781 115.671875 364.183594 116.730469 364.042969 117.792969 C 363.230469 124.0625 361.820312 130.195312 359.816406 136.195312 C 359.460938 137.269531 359.085938 138.335938 358.691406 139.402344 C 356.191406 146.164062 353.003906 152.585938 349.132812 158.671875 C 348.492188 159.679688 347.832031 160.679688 347.152344 161.664062 C 342.019531 169.117188 335.886719 175.820312 328.933594 181.386719 C 327.691406 182.378906 326.425781 183.335938 325.132812 184.253906 C 323.648438 185.3125 322.132812 186.320312 320.578125 187.269531 C 318.613281 188.476562 315.503906 190.546875 312.648438 191.0625 C 311.757812 191.246094 310.875 191.222656 309.996094 190.988281 C 309.820312 190.933594 309.648438 190.871094 309.480469 190.796875 C 304.910156 188.761719 305.160156 178.140625 305.136719 173.859375 C 305.125 172.320312 305.15625 170.792969 305.230469 169.269531 C 305.3125 167.421875 305.457031 165.582031 305.652344 163.753906 C 306.277344 158.097656 307.335938 152.527344 308.835938 147.039062 C 309.183594 145.734375 309.5625 144.445312 309.941406 143.15625 C 309.953125 143.109375 309.96875 143.066406 309.984375 143.019531 C 311.722656 137.347656 313.75 131.777344 316.066406 126.316406 C 316.492188 125.285156 316.929688 124.257812 317.378906 123.234375 C 318.871094 119.804688 320.433594 116.417969 322.035156 113.066406 C 322.605469 111.871094 323.179688 110.679688 323.753906 109.496094 C 324.191406 108.601562 324.625 107.710938 325.058594 106.820312 C 327.542969 101.703125 330.019531 96.605469 332.300781 91.398438 C 332.699219 90.480469 333.09375 89.5625 333.480469 88.640625 C 334.085938 87.207031 334.667969 85.765625 335.226562 84.3125 C 336.550781 80.886719 337.773438 77.421875 338.847656 73.910156 C 339.171875 72.851562 339.480469 71.785156 339.773438 70.71875 C 339.960938 70.023438 340.148438 69.324219 340.324219 68.625 C 340.707031 67.097656 342.5625 60.984375 343.195312 56.675781 C 343.234375 56.382812 343.347656 56.117188 343.527344 55.878906 C 343.6875 55.675781 343.878906 55.515625 344.109375 55.398438 C 344.339844 55.277344 344.582031 55.214844 344.839844 55.207031 C 345.097656 55.195312 345.34375 55.242188 345.582031 55.339844 C 345.820312 55.441406 346.023438 55.589844 346.199219 55.78125 L 346.222656 55.808594 C 350.488281 60.535156 354.042969 65.742188 356.894531 71.429688 C 357.316406 72.273438 357.722656 73.121094 358.109375 73.976562 C 360.75 79.878906 362.59375 86.019531 363.636719 92.398438 Z M 363.636719 92.398438 " fill-opacity="1" fill-rule="nonzero"/><path fill="#181a44" d="M 346.976562 102.882812 C 352.53125 99.386719 358.085938 95.894531 363.636719 92.398438 C 363.796875 93.335938 363.9375 94.277344 364.0625 95.21875 L 346.210938 106.453125 C 344.648438 113.195312 342.632812 119.800781 340.167969 126.269531 C 341.144531 125.871094 342.117188 125.46875 343.089844 125.058594 C 345.160156 124.175781 347.222656 123.265625 349.269531 122.320312 C 354.410156 119.949219 359.449219 117.378906 364.390625 114.609375 C 364.292969 115.671875 364.175781 116.730469 364.035156 117.792969 C 362.859375 118.441406 361.675781 119.078125 360.484375 119.703125 C 356.152344 121.984375 351.75 124.117188 347.273438 126.097656 C 345.070312 127.078125 342.851562 128.015625 340.621094 128.917969 C 340.078125 129.136719 339.480469 129.441406 338.871094 129.601562 C 336.683594 135.058594 334.238281 140.414062 331.628906 145.644531 C 331.558594 145.789062 331.484375 145.933594 331.410156 146.078125 C 340.941406 142.960938 350.410156 139.667969 359.820312 136.199219 C 359.464844 137.273438 359.089844 138.34375 358.695312 139.40625 C 349.097656 142.917969 339.433594 146.246094 329.703125 149.386719 C 327.105469 154.335938 324.359375 159.222656 321.855469 164.21875 C 330.878906 162.042969 339.972656 160.195312 349.132812 158.671875 C 348.492188 159.679688 347.832031 160.679688 347.152344 161.664062 C 338.164062 163.214844 329.234375 165.078125 320.367188 167.257812 C 318.804688 170.511719 317.425781 173.84375 316.242188 177.25 C 315.703125 178.816406 315.226562 180.394531 314.773438 181.984375 C 315.777344 182.011719 316.800781 181.941406 317.796875 181.921875 C 321.511719 181.835938 325.222656 181.65625 328.929688 181.386719 C 327.691406 182.378906 326.425781 183.335938 325.132812 184.253906 C 322.03125 184.425781 318.925781 184.53125 315.820312 184.570312 C 315.214844 184.570312 314.632812 184.585938 314.089844 184.535156 C 313.546875 186.695312 313.070312 188.875 312.644531 191.0625 C 311.753906 191.246094 310.867188 191.222656 309.988281 190.988281 C 310.472656 188.449219 311.023438 185.925781 311.667969 183.425781 C 311.472656 183.195312 311.308594 182.945312 311.175781 182.679688 C 310.070312 180.484375 309.164062 178.164062 308.167969 175.917969 C 307.183594 173.699219 306.199219 171.484375 305.214844 169.265625 C 305.296875 167.417969 305.441406 165.578125 305.636719 163.75 C 307.132812 167.121094 308.628906 170.488281 310.128906 173.859375 C 310.988281 175.796875 311.851562 177.734375 312.710938 179.671875 C 313.339844 177.578125 314.035156 175.507812 314.820312 173.453125 C 315.71875 171.113281 316.71875 168.824219 317.777344 166.5625 C 314.789062 160.050781 311.804688 153.539062 308.820312 147.027344 C 309.164062 145.726562 309.542969 144.4375 309.921875 143.144531 C 313.03125 149.929688 316.144531 156.714844 319.257812 163.496094 C 321.78125 158.417969 324.566406 153.457031 327.222656 148.441406 C 323.640625 140.988281 319.914062 133.613281 316.042969 126.308594 C 316.46875 125.28125 316.910156 124.253906 317.359375 123.226562 C 321.296875 130.589844 325.085938 138.03125 328.726562 145.550781 C 329.261719 144.507812 329.792969 143.460938 330.304688 142.410156 C 332.484375 137.9375 334.527344 133.386719 336.386719 128.765625 C 336.195312 128.519531 336.023438 128.261719 335.867188 127.988281 C 332.132812 121.621094 328.089844 115.460938 323.730469 109.5 C 324.164062 108.609375 324.601562 107.714844 325.035156 106.824219 C 326.960938 109.417969 328.828125 112.054688 330.636719 114.734375 C 333.0625 118.332031 335.371094 122.003906 337.570312 125.746094 C 339.382812 120.988281 340.988281 116.160156 342.332031 111.246094 C 342.769531 109.644531 343.179688 108.027344 343.554688 106.394531 C 339.871094 101.339844 336.109375 96.34375 332.269531 91.402344 C 332.671875 90.488281 333.0625 89.566406 333.449219 88.644531 C 337.136719 93.371094 340.753906 98.148438 344.300781 102.976562 C 345.554688 96.835938 346.3125 90.636719 346.566406 84.375 C 346.40625 84.289062 346.273438 84.175781 346.164062 84.03125 C 343.714844 80.65625 341.261719 77.285156 338.808594 73.917969 C 339.132812 72.855469 339.441406 71.792969 339.734375 70.722656 L 346.644531 80.230469 C 346.636719 72.003906 345.65625 63.8125 343.492188 55.886719 C 343.648438 55.683594 343.839844 55.519531 344.070312 55.402344 C 344.300781 55.285156 344.542969 55.222656 344.800781 55.210938 C 345.058594 55.203125 345.308594 55.246094 345.542969 55.347656 C 345.78125 55.449219 345.988281 55.59375 346.160156 55.785156 L 346.1875 55.8125 C 348.214844 63.492188 349.191406 71.433594 349.269531 79.398438 C 351.878906 76.8125 354.40625 74.160156 356.859375 71.441406 C 357.28125 72.285156 357.6875 73.136719 358.070312 73.992188 C 355.222656 77.109375 352.28125 80.140625 349.246094 83.085938 C 349.0625 89.75 348.304688 96.347656 346.976562 102.882812 Z M 346.976562 102.882812 " fill-opacity="1" fill-rule="nonzero"/><path fill="#f0426a" d="M 386.894531 124.390625 C 386.730469 125.074219 386.554688 125.757812 386.363281 126.4375 C 385.054688 131.070312 383.246094 135.503906 380.9375 139.734375 C 380.558594 140.429688 380.167969 141.117188 379.769531 141.796875 C 377.386719 145.832031 374.640625 149.597656 371.53125 153.101562 C 370.972656 153.726562 370.40625 154.347656 369.828125 154.957031 C 366.152344 158.832031 362.109375 162.28125 357.703125 165.300781 C 356.96875 165.800781 356.230469 166.285156 355.480469 166.761719 C 349.8125 170.34375 343.6875 173.125 337.328125 174.894531 C 336.195312 175.210938 335.054688 175.496094 333.90625 175.742188 C 332.585938 176.03125 331.257812 176.273438 329.925781 176.472656 C 328.238281 176.722656 325.515625 177.226562 323.421875 176.75 C 322.761719 176.617188 322.164062 176.339844 321.636719 175.925781 C 321.535156 175.839844 321.4375 175.746094 321.347656 175.648438 C 318.824219 172.933594 322.089844 165.773438 323.320312 162.847656 C 323.757812 161.800781 324.222656 160.769531 324.71875 159.75 C 325.3125 158.515625 325.945312 157.304688 326.613281 156.117188 C 328.683594 152.449219 331.03125 148.960938 333.648438 145.660156 C 334.261719 144.878906 334.890625 144.101562 335.53125 143.339844 C 335.554688 143.3125 335.578125 143.285156 335.597656 143.257812 C 338.4375 139.898438 341.4375 136.695312 344.605469 133.648438 C 345.195312 133.070312 345.792969 132.5 346.398438 131.933594 C 348.410156 130.03125 350.464844 128.171875 352.53125 126.363281 C 353.269531 125.714844 354.007812 125.074219 354.742188 124.429688 L 356.410156 122.984375 C 359.59375 120.222656 362.761719 117.472656 365.824219 114.585938 C 366.363281 114.078125 366.898438 113.570312 367.429688 113.054688 C 368.257812 112.25 369.074219 111.4375 369.878906 110.613281 C 371.777344 108.664062 373.621094 106.660156 375.371094 104.582031 C 375.902344 103.953125 376.421875 103.316406 376.933594 102.675781 C 377.265625 102.257812 377.59375 101.835938 377.917969 101.410156 C 378.625 100.484375 381.667969 96.859375 383.355469 94.109375 C 383.46875 93.921875 383.621094 93.773438 383.8125 93.664062 C 383.980469 93.570312 384.15625 93.515625 384.347656 93.5 C 384.539062 93.488281 384.722656 93.515625 384.902344 93.582031 C 385.082031 93.652344 385.238281 93.753906 385.367188 93.890625 C 385.5 94.03125 385.597656 94.191406 385.660156 94.371094 C 385.664062 94.378906 385.667969 94.390625 385.667969 94.398438 C 387.195312 98.855469 388.101562 103.4375 388.382812 108.140625 C 388.425781 108.835938 388.453125 109.535156 388.46875 110.226562 C 388.558594 115.015625 388.03125 119.738281 386.894531 124.390625 Z M 386.894531 124.390625 " fill-opacity="1" fill-rule="nonzero"/><path fill="#181a44" d="M 372.496094 126.6875 L 386.894531 124.390625 C 386.730469 125.074219 386.554688 125.757812 386.363281 126.4375 L 370.933594 128.898438 C 367.90625 133.03125 364.609375 136.945312 361.046875 140.632812 C 361.824219 140.648438 362.605469 140.65625 363.386719 140.65625 C 365.054688 140.65625 366.722656 140.632812 368.390625 140.589844 C 372.582031 140.46875 376.765625 140.183594 380.9375 139.734375 C 380.558594 140.429688 380.167969 141.117188 379.769531 141.800781 C 378.773438 141.894531 377.78125 141.984375 376.792969 142.066406 C 373.175781 142.363281 369.558594 142.535156 365.929688 142.582031 C 364.144531 142.605469 362.363281 142.601562 360.578125 142.570312 C 360.144531 142.558594 359.648438 142.59375 359.1875 142.523438 C 356.109375 145.605469 352.886719 148.542969 349.578125 151.347656 C 349.488281 151.421875 349.394531 151.492188 349.304688 151.574219 C 356.703125 152.222656 364.109375 152.734375 371.527344 153.105469 C 370.972656 153.734375 370.402344 154.351562 369.824219 154.964844 C 362.269531 154.5625 354.71875 154.019531 347.175781 153.335938 C 343.964844 155.949219 340.671875 158.480469 337.507812 161.144531 C 344.289062 162.289062 351.015625 163.671875 357.699219 165.300781 C 356.96875 165.800781 356.226562 166.285156 355.480469 166.761719 C 348.90625 165.203125 342.285156 163.878906 335.613281 162.785156 C 333.597656 164.542969 331.691406 166.414062 329.890625 168.390625 C 329.066406 169.300781 328.277344 170.234375 327.511719 171.183594 C 328.1875 171.496094 328.902344 171.746094 329.585938 172.019531 C 332.140625 173.042969 334.722656 174 337.324219 174.894531 C 336.191406 175.210938 335.050781 175.496094 333.902344 175.742188 C 331.742188 174.957031 329.597656 174.125 327.46875 173.25 C 327.074219 173.09375 326.683594 172.917969 326.304688 172.726562 C 325.300781 174.035156 324.34375 175.378906 323.417969 176.75 C 322.757812 176.617188 322.164062 176.339844 321.632812 175.925781 C 322.699219 174.335938 323.8125 172.78125 324.980469 171.265625 C 324.914062 171.050781 324.875 170.835938 324.863281 170.613281 C 324.75 168.796875 324.808594 166.957031 324.785156 165.136719 C 324.761719 163.339844 324.734375 161.546875 324.710938 159.75 C 325.304688 158.515625 325.9375 157.304688 326.605469 156.117188 C 326.640625 158.847656 326.679688 161.578125 326.714844 164.304688 C 326.738281 165.875 326.761719 167.445312 326.78125 169.015625 C 327.816406 167.773438 328.898438 166.566406 330.027344 165.398438 C 331.320312 164.066406 332.667969 162.796875 334.046875 161.566406 C 333.914062 156.265625 333.777344 150.960938 333.640625 145.65625 C 334.253906 144.871094 334.882812 144.097656 335.523438 143.332031 C 335.664062 148.855469 335.808594 154.378906 335.949219 159.902344 C 339.148438 157.179688 342.492188 154.613281 345.761719 151.964844 C 345.492188 145.851562 345.105469 139.742188 344.601562 133.644531 C 345.191406 133.066406 345.789062 132.492188 346.394531 131.929688 C 346.929688 138.085938 347.34375 144.253906 347.632812 150.433594 C 348.300781 149.878906 348.964844 149.320312 349.621094 148.753906 C 352.410156 146.339844 355.121094 143.835938 357.738281 141.230469 C 357.679688 141.003906 357.640625 140.777344 357.613281 140.546875 C 356.925781 135.125 355.96875 129.75 354.738281 124.425781 L 356.40625 122.980469 C 356.957031 125.304688 357.460938 127.644531 357.914062 129.992188 C 358.515625 133.148438 359.019531 136.320312 359.425781 139.507812 C 362.046875 136.796875 364.546875 133.972656 366.894531 131.019531 C 367.660156 130.054688 368.40625 129.070312 369.140625 128.070312 C 368.101562 123.558594 366.996094 119.0625 365.824219 114.582031 C 366.363281 114.074219 366.898438 113.5625 367.429688 113.046875 C 368.566406 117.335938 369.636719 121.640625 370.644531 125.960938 C 373.289062 122.144531 375.609375 118.140625 377.609375 113.953125 C 377.523438 113.851562 377.464844 113.734375 377.433594 113.605469 C 376.746094 110.597656 376.058594 107.589844 375.375 104.578125 C 375.902344 103.949219 376.421875 103.316406 376.933594 102.671875 C 377.578125 105.5 378.226562 108.328125 378.871094 111.152344 C 381.257812 105.550781 382.976562 99.6875 383.8125 93.660156 C 383.980469 93.566406 384.160156 93.511719 384.351562 93.5 C 384.539062 93.484375 384.726562 93.511719 384.902344 93.582031 C 385.082031 93.648438 385.238281 93.75 385.371094 93.890625 C 385.503906 94.027344 385.597656 94.1875 385.660156 94.367188 C 385.664062 94.375 385.667969 94.386719 385.671875 94.394531 C 384.789062 100.246094 383.199219 105.898438 380.90625 111.355469 C 383.433594 110.351562 385.925781 109.277344 388.394531 108.136719 C 388.433594 108.835938 388.460938 109.53125 388.476562 110.226562 C 385.628906 111.523438 382.742188 112.730469 379.816406 113.855469 C 377.746094 118.34375 375.304688 122.621094 372.496094 126.6875 Z M 372.496094 126.6875 " fill-opacity="1" fill-rule="nonzero"/><path fill="#4640cc" d="M 349.707031 272.832031 C 349.707031 275.347656 348.742188 277.441406 346.808594 279.117188 C 344.882812 280.375 342.953125 281.214844 340.058594 281.214844 L 127.871094 281.214844 C 125.457031 281.214844 123.046875 280.375 121.117188 279.117188 C 119.1875 277.441406 118.222656 275.347656 118.222656 272.832031 L 118.222656 150.011719 L 349.707031 150.011719 Z M 349.707031 272.832031 " fill-opacity="1" fill-rule="nonzero"/><path fill="#181a44" d="M 346.8125 279.117188 C 344.882812 280.375 342.953125 281.214844 340.0625 281.214844 L 127.871094 281.214844 C 125.457031 281.214844 123.046875 280.375 121.117188 279.117188 L 233.964844 194.863281 Z M 346.8125 279.117188 " fill-opacity="1" fill-rule="nonzero"/><path fill="#181a44" d="M 349.707031 150.011719 L 316.914062 170.550781 L 240.234375 218.339844 C 236.375 220.851562 231.070312 220.851562 227.214844 218.339844 L 151.019531 170.550781 L 118.222656 150.011719 L 151.019531 129.472656 L 222.390625 85.042969 L 227.695312 81.6875 C 231.554688 79.175781 236.859375 79.175781 240.714844 81.6875 L 246.019531 85.042969 L 280.261719 106.417969 L 297.140625 116.898438 L 316.914062 129.472656 Z M 349.707031 150.011719 " fill-opacity="1" fill-rule="nonzero"/><path fill="#f4bd42" d="M 225.425781 217.507812 L 136.9375 161.738281 L 136.9375 111.113281 L 327.105469 111.113281 L 327.105469 164.167969 L 242.503906 217.507812 C 241.226562 218.316406 239.863281 218.925781 238.410156 219.347656 C 236.957031 219.765625 235.476562 219.976562 233.964844 219.976562 C 232.453125 219.976562 230.972656 219.765625 229.519531 219.347656 C 228.070312 218.925781 226.703125 218.316406 225.425781 217.507812 Z M 225.425781 217.507812 " fill-opacity="1" fill-rule="nonzero"/><path fill="#f6a731" d="M 320.316406 97.550781 L 320.316406 111.117188 L 150.527344 111.117188 Z M 320.316406 97.550781 " fill-opacity="1" fill-rule="nonzero"/><path fill="#e78800" d="M 187.878906 165.382812 C 187.878906 141.03125 207.644531 121.292969 232.027344 121.292969 C 256.40625 121.292969 276.171875 141.03125 276.171875 165.382812 C 276.171875 189.730469 256.40625 209.472656 232.027344 209.472656 C 207.648438 209.472656 187.878906 189.734375 187.878906 165.382812 " fill-opacity="1" fill-rule="nonzero"/><path fill="#f6a731" d="M 310.128906 174.84375 L 310.128906 148.339844 C 309.570312 148.390625 309.003906 148.421875 308.429688 148.421875 C 307.820312 148.421875 307.207031 148.394531 306.597656 148.332031 C 305.988281 148.273438 305.386719 148.183594 304.785156 148.066406 C 304.183594 147.945312 303.59375 147.796875 303.007812 147.621094 C 302.421875 147.441406 301.847656 147.238281 301.28125 147.003906 C 300.714844 146.769531 300.164062 146.507812 299.625 146.21875 C 299.082031 145.933594 298.558594 145.617188 298.050781 145.277344 C 297.542969 144.941406 297.050781 144.574219 296.578125 144.1875 C 296.105469 143.800781 295.652344 143.390625 295.21875 142.957031 C 294.789062 142.527344 294.375 142.074219 293.988281 141.601562 C 293.601562 141.128906 293.238281 140.640625 292.898438 140.132812 C 292.554688 139.621094 292.242188 139.097656 291.953125 138.558594 C 291.664062 138.023438 291.402344 137.46875 291.171875 136.90625 C 290.9375 136.339844 290.730469 135.765625 290.550781 135.179688 C 290.375 134.597656 290.226562 134.003906 290.105469 133.40625 C 289.988281 132.804688 289.898438 132.203125 289.839844 131.59375 C 289.777344 130.984375 289.75 130.375 289.746094 129.765625 C 289.746094 129.1875 289.78125 128.628906 289.832031 128.070312 L 255.476562 128.070312 C 267.890625 135.871094 276.171875 149.644531 276.171875 165.375 C 276.171875 181.109375 267.890625 194.882812 255.476562 202.683594 L 265.34375 202.683594 Z M 310.128906 174.84375 " fill-opacity="1" fill-rule="nonzero"/><path fill="#f6a731" d="M 155.621094 148.421875 C 155.039062 148.421875 154.480469 148.390625 153.921875 148.339844 L 153.921875 172.375 L 201.914062 202.6875 L 208.574219 202.6875 C 196.160156 194.878906 187.878906 181.117188 187.878906 165.382812 C 187.878906 149.648438 196.160156 135.875 208.574219 128.074219 L 174.210938 128.074219 C 174.261719 128.632812 174.296875 129.199219 174.296875 129.769531 C 174.296875 130.382812 174.265625 130.992188 174.207031 131.597656 C 174.144531 132.207031 174.054688 132.8125 173.9375 133.410156 C 173.816406 134.011719 173.667969 134.601562 173.492188 135.1875 C 173.3125 135.773438 173.109375 136.347656 172.875 136.910156 C 172.640625 137.476562 172.378906 138.027344 172.089844 138.566406 C 171.800781 139.105469 171.488281 139.628906 171.148438 140.136719 C 170.808594 140.644531 170.441406 141.136719 170.054688 141.609375 C 169.667969 142.078125 169.257812 142.53125 168.824219 142.964844 C 168.390625 143.394531 167.9375 143.804688 167.464844 144.195312 C 166.992188 144.582031 166.5 144.945312 165.992188 145.285156 C 165.484375 145.625 164.960938 145.9375 164.421875 146.226562 C 163.878906 146.515625 163.328125 146.773438 162.761719 147.007812 C 162.199219 147.242188 161.621094 147.449219 161.035156 147.625 C 160.453125 147.804688 159.859375 147.953125 159.257812 148.070312 C 158.65625 148.191406 158.054688 148.28125 157.445312 148.339844 C 156.835938 148.398438 156.226562 148.429688 155.613281 148.429688 " fill-opacity="1" fill-rule="nonzero"/><path fill="#f6a731" d="M 308.429688 138.25 C 307.871094 138.25 307.320312 138.195312 306.773438 138.085938 C 306.226562 137.976562 305.695312 137.816406 305.179688 137.605469 C 304.667969 137.390625 304.175781 137.128906 303.714844 136.820312 C 303.25 136.511719 302.820312 136.160156 302.425781 135.765625 C 302.03125 135.371094 301.679688 134.945312 301.371094 134.480469 C 301.0625 134.019531 300.800781 133.53125 300.585938 133.015625 C 300.375 132.5 300.210938 131.972656 300.105469 131.425781 C 299.996094 130.878906 299.941406 130.328125 299.941406 129.769531 C 299.941406 129.214844 299.996094 128.664062 300.105469 128.117188 C 300.210938 127.570312 300.375 127.039062 300.585938 126.527344 C 300.800781 126.011719 301.0625 125.523438 301.371094 125.058594 C 301.679688 124.597656 302.03125 124.167969 302.425781 123.773438 C 302.820312 123.382812 303.25 123.03125 303.714844 122.71875 C 304.175781 122.410156 304.667969 122.148438 305.179688 121.9375 C 305.695312 121.722656 306.226562 121.5625 306.773438 121.453125 C 307.320312 121.347656 307.871094 121.292969 308.429688 121.292969 C 308.988281 121.292969 309.539062 121.347656 310.085938 121.453125 C 310.632812 121.5625 311.164062 121.722656 311.679688 121.9375 C 312.195312 122.148438 312.683594 122.410156 313.148438 122.71875 C 313.609375 123.03125 314.039062 123.382812 314.433594 123.773438 C 314.828125 124.167969 315.179688 124.597656 315.488281 125.058594 C 315.796875 125.523438 316.058594 126.011719 316.273438 126.527344 C 316.488281 127.039062 316.648438 127.570312 316.757812 128.117188 C 316.867188 128.664062 316.917969 129.214844 316.917969 129.769531 C 316.917969 130.328125 316.863281 130.878906 316.753906 131.425781 C 316.644531 131.96875 316.484375 132.5 316.269531 133.015625 C 316.058594 133.527344 315.796875 134.015625 315.488281 134.480469 C 315.175781 134.941406 314.824219 135.371094 314.429688 135.761719 C 314.035156 136.15625 313.609375 136.507812 313.144531 136.816406 C 312.679688 137.128906 312.191406 137.386719 311.679688 137.601562 C 311.164062 137.816406 310.632812 137.976562 310.085938 138.085938 C 309.539062 138.195312 308.988281 138.25 308.429688 138.25 " fill-opacity="1" fill-rule="nonzero"/><path fill="#f6a731" d="M 155.621094 138.25 C 155.0625 138.25 154.507812 138.195312 153.960938 138.085938 C 153.417969 137.980469 152.886719 137.820312 152.371094 137.605469 C 151.855469 137.394531 151.367188 137.132812 150.902344 136.824219 C 150.4375 136.511719 150.007812 136.164062 149.613281 135.769531 C 149.21875 135.375 148.867188 134.945312 148.558594 134.484375 C 148.25 134.019531 147.988281 133.53125 147.773438 133.019531 C 147.558594 132.503906 147.398438 131.972656 147.289062 131.429688 C 147.179688 130.882812 147.125 130.332031 147.125 129.773438 C 147.125 129.214844 147.179688 128.664062 147.289062 128.117188 C 147.398438 127.574219 147.558594 127.042969 147.769531 126.527344 C 147.984375 126.015625 148.246094 125.523438 148.554688 125.0625 C 148.863281 124.597656 149.214844 124.171875 149.609375 123.777344 C 150.003906 123.382812 150.433594 123.03125 150.898438 122.722656 C 151.359375 122.414062 151.847656 122.152344 152.363281 121.9375 C 152.878906 121.722656 153.410156 121.5625 153.957031 121.453125 C 154.503906 121.347656 155.054688 121.292969 155.613281 121.292969 C 156.171875 121.292969 156.722656 121.347656 157.269531 121.453125 C 157.816406 121.5625 158.347656 121.722656 158.863281 121.9375 C 159.378906 122.148438 159.867188 122.410156 160.332031 122.71875 C 160.792969 123.03125 161.222656 123.378906 161.617188 123.773438 C 162.011719 124.167969 162.363281 124.597656 162.671875 125.058594 C 162.984375 125.523438 163.246094 126.011719 163.457031 126.527344 C 163.671875 127.039062 163.832031 127.570312 163.941406 128.117188 C 164.050781 128.664062 164.105469 129.214844 164.105469 129.769531 C 164.105469 130.328125 164.050781 130.878906 163.941406 131.425781 C 163.832031 131.96875 163.667969 132.5 163.457031 133.015625 C 163.242188 133.527344 162.980469 134.015625 162.671875 134.480469 C 162.363281 134.941406 162.011719 135.371094 161.617188 135.765625 C 161.222656 136.15625 160.792969 136.507812 160.328125 136.816406 C 159.867188 137.128906 159.378906 137.390625 158.863281 137.601562 C 158.347656 137.816406 157.816406 137.976562 157.269531 138.085938 C 156.722656 138.195312 156.171875 138.25 155.613281 138.25 " fill-opacity="1" fill-rule="nonzero"/><path fill="#e78800" d="M 140.335938 111.117188 L 150.527344 111.117188 L 310.128906 98.363281 L 310.128906 83.984375 Z M 140.335938 111.117188 " fill-opacity="1" fill-rule="nonzero"/><path fill="#f4bd42" d="M 229.1875 191.511719 L 229.1875 185.414062 C 224.828125 185.269531 220.351562 184.015625 217.796875 182.375 L 219.691406 176.15625 C 222.421875 177.746094 226.40625 179.207031 230.699219 179.207031 C 234.929688 179.207031 237.953125 177.359375 237.953125 174.347656 C 237.953125 171.496094 235.554688 169.820312 230.433594 168.226562 C 223.078125 165.941406 218.34375 162.804688 218.34375 156.730469 C 218.34375 151.113281 222.453125 146.789062 229.464844 145.703125 L 229.464844 139.585938 L 234.898438 139.585938 L 234.898438 145.453125 C 239.390625 145.617188 242.285156 146.644531 244.480469 147.738281 L 242.621094 153.777344 C 241.058594 153.027344 237.886719 151.375 232.976562 151.375 C 228.132812 151.375 226.628906 153.710938 226.628906 155.738281 C 226.628906 158.246094 229.214844 159.8125 235.039062 161.800781 C 242.75 164.3125 246.261719 167.609375 246.261719 173.652344 C 246.261719 178.871094 242.367188 183.902344 234.625 185.09375 L 234.625 191.519531 Z M 229.1875 191.511719 " fill-opacity="1" fill-rule="nonzero"/><path fill="#00cbdc" d="M 85.777344 221.351562 L 85.777344 277.523438 C 85.777344 277.972656 85.824219 278.417969 85.910156 278.859375 C 86 279.300781 86.128906 279.730469 86.300781 280.144531 C 86.472656 280.558594 86.6875 280.953125 86.9375 281.328125 C 87.1875 281.703125 87.46875 282.046875 87.789062 282.367188 C 88.105469 282.683594 88.453125 282.96875 88.828125 283.21875 C 89.203125 283.46875 89.597656 283.679688 90.011719 283.851562 C 90.429688 284.023438 90.859375 284.152344 91.300781 284.242188 C 91.742188 284.328125 92.1875 284.375 92.636719 284.375 L 166.710938 284.375 C 167.160156 284.375 167.609375 284.328125 168.050781 284.242188 C 168.492188 284.152344 168.917969 284.023438 169.335938 283.851562 C 169.75 283.679688 170.144531 283.46875 170.519531 283.21875 C 170.894531 282.96875 171.242188 282.683594 171.558594 282.367188 C 171.878906 282.046875 172.160156 281.703125 172.414062 281.328125 C 172.664062 280.953125 172.875 280.558594 173.046875 280.144531 C 173.21875 279.730469 173.347656 279.300781 173.4375 278.859375 C 173.527344 278.417969 173.570312 277.972656 173.570312 277.523438 L 173.570312 221.351562 Z M 85.777344 221.351562 " fill-opacity="1" fill-rule="nonzero"/><path fill="#cf2959" d="M 166.710938 202.167969 L 92.636719 202.167969 C 92.1875 202.167969 91.742188 202.214844 91.300781 202.300781 C 90.859375 202.390625 90.429688 202.519531 90.011719 202.691406 C 89.597656 202.863281 89.203125 203.074219 88.828125 203.324219 C 88.453125 203.574219 88.105469 203.859375 87.789062 204.175781 C 87.46875 204.496094 87.1875 204.839844 86.9375 205.214844 C 86.6875 205.589844 86.472656 205.984375 86.300781 206.398438 C 86.128906 206.8125 86 207.242188 85.910156 207.683594 C 85.824219 208.125 85.777344 208.570312 85.777344 209.019531 L 85.777344 221.351562 L 173.574219 221.351562 L 173.574219 209.019531 C 173.574219 208.570312 173.53125 208.125 173.441406 207.683594 C 173.351562 207.242188 173.222656 206.8125 173.050781 206.398438 C 172.878906 205.980469 172.664062 205.585938 172.414062 205.214844 C 172.164062 204.839844 171.878906 204.492188 171.5625 204.175781 C 171.242188 203.859375 170.898438 203.574219 170.523438 203.324219 C 170.148438 203.074219 169.753906 202.863281 169.335938 202.691406 C 168.921875 202.519531 168.492188 202.390625 168.050781 202.300781 C 167.609375 202.210938 167.160156 202.167969 166.710938 202.167969 Z M 166.710938 202.167969 " fill-opacity="1" fill-rule="nonzero"/><path fill="#ffffff" d="M 128.046875 211.757812 C 128.046875 212.03125 128.019531 212.296875 127.96875 212.5625 C 127.914062 212.828125 127.835938 213.082031 127.734375 213.332031 C 127.632812 213.582031 127.503906 213.820312 127.355469 214.042969 C 127.203125 214.269531 127.035156 214.476562 126.84375 214.667969 C 126.652344 214.855469 126.441406 215.027344 126.21875 215.175781 C 125.992188 215.328125 125.757812 215.453125 125.507812 215.558594 C 125.257812 215.660156 125 215.738281 124.734375 215.792969 C 124.46875 215.84375 124.203125 215.871094 123.933594 215.871094 C 123.660156 215.871094 123.394531 215.84375 123.128906 215.792969 C 122.863281 215.738281 122.605469 215.660156 122.355469 215.558594 C 122.105469 215.453125 121.871094 215.328125 121.644531 215.175781 C 121.421875 215.027344 121.210938 214.855469 121.023438 214.667969 C 120.832031 214.476562 120.660156 214.269531 120.507812 214.042969 C 120.359375 213.820312 120.234375 213.582031 120.128906 213.332031 C 120.027344 213.082031 119.949219 212.828125 119.894531 212.5625 C 119.84375 212.296875 119.816406 212.03125 119.816406 211.757812 C 119.816406 211.488281 119.84375 211.222656 119.894531 210.957031 C 119.949219 210.691406 120.027344 210.4375 120.128906 210.1875 C 120.234375 209.9375 120.359375 209.699219 120.507812 209.476562 C 120.660156 209.25 120.832031 209.042969 121.023438 208.851562 C 121.210938 208.664062 121.421875 208.492188 121.644531 208.339844 C 121.871094 208.191406 122.105469 208.066406 122.355469 207.960938 C 122.605469 207.859375 122.863281 207.78125 123.128906 207.726562 C 123.394531 207.675781 123.660156 207.648438 123.933594 207.648438 C 124.203125 207.648438 124.46875 207.675781 124.734375 207.726562 C 125 207.78125 125.257812 207.859375 125.507812 207.960938 C 125.757812 208.066406 125.992188 208.191406 126.21875 208.339844 C 126.441406 208.492188 126.652344 208.664062 126.84375 208.851562 C 127.035156 209.042969 127.203125 209.25 127.355469 209.476562 C 127.503906 209.699219 127.632812 209.9375 127.734375 210.1875 C 127.835938 210.4375 127.914062 210.691406 127.96875 210.957031 C 128.019531 211.222656 128.046875 211.488281 128.046875 211.757812 Z M 128.046875 211.757812 " fill-opacity="1" fill-rule="nonzero"/><path fill="#02b3b7" d="M 123.933594 213.816406 C 123.660156 213.816406 123.394531 213.761719 123.144531 213.660156 C 122.890625 213.554688 122.667969 213.40625 122.476562 213.214844 C 122.285156 213.019531 122.136719 212.796875 122.03125 212.546875 C 121.925781 212.292969 121.875 212.03125 121.875 211.757812 L 121.875 202.167969 C 121.875 201.894531 121.925781 201.632812 122.03125 201.382812 C 122.136719 201.128906 122.285156 200.90625 122.476562 200.714844 C 122.667969 200.523438 122.890625 200.375 123.144531 200.269531 C 123.394531 200.164062 123.660156 200.113281 123.933594 200.113281 C 124.203125 200.113281 124.46875 200.164062 124.71875 200.269531 C 124.972656 200.375 125.195312 200.523438 125.386719 200.714844 C 125.578125 200.90625 125.730469 201.128906 125.832031 201.382812 C 125.9375 201.632812 125.988281 201.894531 125.988281 202.167969 L 125.988281 211.757812 C 125.988281 212.03125 125.9375 212.292969 125.832031 212.546875 C 125.730469 212.796875 125.578125 213.019531 125.386719 213.214844 C 125.195312 213.40625 124.972656 213.554688 124.71875 213.660156 C 124.46875 213.761719 124.203125 213.816406 123.933594 213.816406 Z M 123.933594 213.816406 " fill-opacity="1" fill-rule="nonzero"/><path fill="#ffffff" d="M 139.535156 211.757812 C 139.535156 212.03125 139.511719 212.296875 139.457031 212.5625 C 139.40625 212.828125 139.328125 213.082031 139.222656 213.332031 C 139.121094 213.582031 138.992188 213.820312 138.84375 214.042969 C 138.691406 214.269531 138.523438 214.476562 138.332031 214.667969 C 138.140625 214.855469 137.933594 215.027344 137.707031 215.175781 C 137.484375 215.328125 137.246094 215.453125 136.996094 215.558594 C 136.746094 215.660156 136.488281 215.738281 136.222656 215.792969 C 135.957031 215.84375 135.691406 215.871094 135.421875 215.871094 C 135.152344 215.871094 134.882812 215.84375 134.617188 215.792969 C 134.351562 215.738281 134.09375 215.660156 133.84375 215.558594 C 133.597656 215.453125 133.359375 215.328125 133.132812 215.175781 C 132.910156 215.027344 132.703125 214.855469 132.511719 214.667969 C 132.320312 214.476562 132.148438 214.269531 132 214.042969 C 131.847656 213.820312 131.722656 213.582031 131.617188 213.332031 C 131.515625 213.082031 131.4375 212.828125 131.382812 212.5625 C 131.332031 212.296875 131.304688 212.03125 131.304688 211.757812 C 131.304688 211.488281 131.332031 211.222656 131.382812 210.957031 C 131.4375 210.691406 131.515625 210.4375 131.617188 210.1875 C 131.722656 209.9375 131.847656 209.699219 132 209.476562 C 132.148438 209.25 132.320312 209.042969 132.511719 208.851562 C 132.703125 208.664062 132.910156 208.492188 133.132812 208.339844 C 133.359375 208.191406 133.597656 208.066406 133.84375 207.960938 C 134.09375 207.859375 134.351562 207.78125 134.617188 207.726562 C 134.882812 207.675781 135.152344 207.648438 135.421875 207.648438 C 135.691406 207.648438 135.957031 207.675781 136.222656 207.726562 C 136.488281 207.78125 136.746094 207.859375 136.996094 207.960938 C 137.246094 208.066406 137.484375 208.191406 137.707031 208.339844 C 137.933594 208.492188 138.140625 208.664062 138.332031 208.851562 C 138.523438 209.042969 138.691406 209.25 138.84375 209.476562 C 138.992188 209.699219 139.121094 209.9375 139.222656 210.1875 C 139.328125 210.4375 139.40625 210.691406 139.457031 210.957031 C 139.511719 211.222656 139.535156 211.488281 139.535156 211.757812 Z M 139.535156 211.757812 " fill-opacity="1" fill-rule="nonzero"/><path fill="#02b3b7" d="M 135.421875 213.816406 C 135.148438 213.816406 134.886719 213.761719 134.632812 213.660156 C 134.382812 213.554688 134.160156 213.40625 133.964844 213.214844 C 133.773438 213.019531 133.625 212.796875 133.519531 212.546875 C 133.414062 212.292969 133.363281 212.03125 133.363281 211.757812 L 133.363281 202.167969 C 133.363281 201.894531 133.414062 201.632812 133.519531 201.382812 C 133.625 201.128906 133.773438 200.90625 133.964844 200.714844 C 134.160156 200.523438 134.382812 200.375 134.632812 200.269531 C 134.886719 200.164062 135.148438 200.113281 135.421875 200.113281 C 135.695312 200.113281 135.957031 200.164062 136.207031 200.269531 C 136.460938 200.375 136.683594 200.523438 136.875 200.714844 C 137.070312 200.90625 137.21875 201.128906 137.320312 201.382812 C 137.425781 201.632812 137.480469 201.894531 137.480469 202.167969 L 137.480469 211.757812 C 137.480469 212.03125 137.425781 212.292969 137.320312 212.546875 C 137.21875 212.796875 137.070312 213.019531 136.875 213.214844 C 136.683594 213.40625 136.460938 213.554688 136.207031 213.660156 C 135.957031 213.761719 135.695312 213.816406 135.421875 213.816406 Z M 135.421875 213.816406 " fill-opacity="1" fill-rule="nonzero"/><path fill="#ffffff" d="M 111.84375 245.992188 L 103.269531 244.457031 C 103.980469 241.726562 105.351562 239.636719 107.378906 238.183594 C 109.402344 236.730469 112.273438 236.003906 115.984375 236.003906 C 120.246094 236.003906 123.324219 236.796875 125.226562 238.382812 C 127.125 239.96875 128.074219 241.964844 128.074219 244.367188 C 128.089844 245.761719 127.703125 247.039062 126.917969 248.191406 C 126.144531 249.332031 124.980469 250.335938 123.421875 251.195312 C 124.683594 251.507812 125.648438 251.871094 126.316406 252.285156 C 127.394531 252.9375 128.238281 253.816406 128.847656 254.917969 C 129.445312 256.011719 129.746094 257.3125 129.746094 258.824219 C 129.742188 260.777344 129.242188 262.597656 128.253906 264.285156 C 127.238281 266.070312 125.804688 267.410156 123.957031 268.3125 C 122.085938 269.253906 119.628906 269.722656 116.585938 269.722656 C 113.617188 269.722656 111.277344 269.375 109.5625 268.679688 C 107.886719 268.019531 106.476562 267 105.328125 265.617188 C 104.222656 264.277344 103.375 262.589844 102.78125 260.554688 L 111.84375 259.355469 C 112.199219 261.179688 112.753906 262.445312 113.5 263.148438 C 114.25 263.851562 115.203125 264.207031 116.363281 264.203125 C 116.945312 264.214844 117.5 264.105469 118.03125 263.871094 C 118.5625 263.640625 119.019531 263.304688 119.40625 262.867188 C 120.214844 261.980469 120.621094 260.792969 120.617188 259.3125 C 120.617188 257.800781 120.230469 256.628906 119.449219 255.796875 C 118.671875 254.964844 117.613281 254.550781 116.273438 254.550781 C 115.5625 254.550781 114.582031 254.730469 113.332031 255.085938 L 113.800781 248.613281 C 114.191406 248.679688 114.585938 248.714844 114.980469 248.722656 C 116.167969 248.722656 117.160156 248.347656 117.953125 247.589844 C 118.335938 247.246094 118.632812 246.839844 118.839844 246.371094 C 119.046875 245.902344 119.148438 245.410156 119.144531 244.898438 C 119.144531 243.90625 118.847656 243.113281 118.253906 242.519531 C 117.660156 241.925781 116.84375 241.628906 115.804688 241.628906 C 114.738281 241.628906 113.867188 241.953125 113.199219 242.597656 C 112.53125 243.242188 112.078125 244.375 111.84375 245.992188 Z M 111.84375 245.992188 " fill-opacity="1" fill-rule="nonzero"/><path fill="#ffffff" d="M 154.019531 236.003906 L 154.019531 269.160156 L 144.84375 269.160156 L 144.84375 247.4375 C 143.492188 248.480469 142.054688 249.390625 140.535156 250.171875 C 139.144531 250.867188 137.40625 251.535156 135.3125 252.171875 L 135.3125 244.746094 C 138.402344 243.75 140.800781 242.558594 142.503906 241.164062 C 144.238281 239.75 145.574219 238.03125 146.515625 236.003906 Z M 154.019531 236.003906 " fill-opacity="1" fill-rule="nonzero"/><path fill="#181a44" d="M 307.898438 284.636719 L 308.292969 286.292969 C 308.324219 286.429688 308.324219 286.570312 308.292969 286.710938 C 308.257812 286.847656 308.195312 286.972656 308.101562 287.082031 C 308.007812 287.191406 307.898438 287.273438 307.765625 287.328125 C 307.632812 287.386719 307.496094 287.40625 307.351562 287.398438 L 299.863281 286.875 C 299.863281 286.875 299.785156 285.46875 301.550781 285.242188 C 302.707031 285.082031 303.835938 284.8125 304.9375 284.429688 Z M 307.898438 284.636719 " fill-opacity="1" fill-rule="nonzero"/><path fill="#181a44" d="M 336.320312 258.457031 L 337.988281 258.109375 C 338.128906 258.082031 338.265625 258.085938 338.40625 258.121094 C 338.542969 258.160156 338.667969 258.226562 338.773438 258.320312 C 338.878906 258.417969 338.960938 258.53125 339.011719 258.664062 C 339.066406 258.796875 339.085938 258.9375 339.070312 259.078125 L 338.347656 266.542969 C 338.347656 266.542969 336.9375 266.582031 336.761719 264.808594 C 336.628906 263.652344 336.386719 262.515625 336.035156 261.40625 Z M 336.320312 258.457031 " fill-opacity="1" fill-rule="nonzero"/><path fill="#9792ff" d="M 288.542969 215.84375 L 291.503906 220.25 C 291.601562 220.167969 291.691406 220.085938 291.773438 219.996094 L 297.007812 212.617188 C 296.765625 214.351562 297.039062 216.003906 297.835938 217.566406 C 299.339844 220.558594 300.242188 227.636719 299.765625 232.382812 C 299.210938 237.902344 299.136719 239.140625 302.539062 238.828125 C 307.292969 238.394531 312.632812 238.464844 314.921875 238.152344 C 315.636719 238.054688 315.417969 236.371094 315.117188 234.304688 C 315.019531 233.625 314.21875 230.886719 313.316406 227.464844 L 313.316406 227.453125 C 312.988281 226.226562 312.652344 224.90625 312.324219 223.566406 L 312.375 223.558594 L 311.492188 219.910156 C 310.878906 216.984375 310.449219 214.210938 310.488281 212.242188 C 310.488281 212.242188 312.277344 213.398438 314.554688 218.546875 L 313.847656 218.863281 L 311.492188 219.902344 L 318.421875 217.019531 C 316.628906 213.023438 313.175781 208.050781 310.789062 205.511719 C 308.53125 203.113281 307.355469 203.484375 299.046875 204.421875 C 296.40625 204.722656 294.890625 207.503906 294.121094 208.4375 C 292.515625 210.382812 289.3125 214.777344 288.542969 215.84375 Z M 288.542969 215.84375 " fill-opacity="1" fill-rule="nonzero"/><path fill="#f7c4a3" d="M 311.488281 219.90625 L 312.371094 223.554688 L 318.214844 222.398438 C 318.425781 222.355469 318.621094 222.277344 318.800781 222.160156 C 318.980469 222.042969 319.132812 221.898438 319.257812 221.722656 C 319.382812 221.546875 319.472656 221.355469 319.523438 221.148438 C 319.574219 220.941406 319.585938 220.730469 319.554688 220.515625 C 319.421875 219.539062 319.011719 218.332031 318.421875 217.023438 L 318.421875 217.011719 Z M 311.488281 219.90625 " fill-opacity="1" fill-rule="nonzero"/><path fill="#292a72" d="M 299.484375 236.417969 C 299.484375 236.417969 299.492188 237.773438 299.511719 239.863281 C 299.511719 240.050781 299.511719 240.246094 299.511719 240.453125 C 299.582031 246.804688 299.734375 258.699219 299.925781 261.425781 C 300.195312 265.09375 303.214844 277.96875 304.96875 284.679688 C 305.054688 285.011719 307.8125 284.980469 307.800781 284.511719 C 307.726562 280.089844 305.933594 265.675781 305.492188 262.519531 C 305.09375 259.625 305.402344 249.195312 307.261719 244.597656 C 307.570312 243.835938 308.710938 243.960938 308.855469 244.765625 C 309.648438 248.671875 311.421875 257.195312 312.582031 260.9375 C 313.9375 265.277344 332.949219 261.398438 336.367188 260.648438 C 336.585938 260.597656 336.722656 258.640625 336.402344 258.648438 C 333.175781 258.691406 317.984375 258.753906 317.480469 255.804688 C 317.019531 253.105469 316.265625 245.289062 315.820312 240.4375 L 315.820312 240.429688 C 315.792969 240.183594 315.769531 239.957031 315.75 239.730469 C 315.570312 237.734375 315.457031 236.402344 315.457031 236.402344 C 315.457031 236.402344 315.441406 235.71875 314.863281 235.660156 L 314.789062 235.660156 C 314.667969 235.640625 314.519531 235.621094 314.316406 235.605469 C 313.53125 235.542969 311.851562 235.484375 307.003906 235.648438 C 304.222656 235.746094 302.425781 235.824219 301.296875 235.914062 C 301.128906 235.921875 300.96875 235.9375 300.828125 235.945312 C 299.753906 236.050781 299.480469 236.191406 299.484375 236.417969 Z M 299.484375 236.417969 " fill-opacity="1" fill-rule="nonzero"/><path fill="#181a44" d="M 297.253906 200.292969 C 298.15625 203.128906 297.128906 208.128906 297.761719 212.667969 C 298.390625 217.203125 305.085938 234.910156 311.46875 220.1875 C 315.113281 211.78125 310.347656 207.722656 308.992188 203.476562 C 307.46875 198.703125 307.773438 195.089844 305.496094 192.363281 C 303.324219 189.757812 299.765625 190.546875 298.230469 191.667969 C 295.027344 194.023438 296.503906 197.925781 297.253906 200.292969 Z M 297.253906 200.292969 " fill-opacity="1" fill-rule="nonzero"/><path fill="#f7c4a3" d="M 272 217.5625 C 272.957031 218.351562 274.664062 218.761719 274.117188 218.285156 C 273.574219 217.808594 273.757812 217.246094 274.160156 217.707031 C 274.5625 218.164062 275.871094 218.445312 275.871094 218.445312 L 288.371094 216.070312 L 288.539062 215.835938 L 290.976562 219.480469 C 290.464844 219.917969 289.875 220.15625 289.203125 220.207031 L 276.605469 220.710938 C 276.460938 220.730469 276.292969 220.746094 276.121094 220.765625 C 271.304688 221.269531 271.296875 216.980469 272 217.5625 Z M 272 217.5625 " fill-opacity="1" fill-rule="nonzero"/><path fill="#6858f7" d="M 371.4375 224.210938 C 376.363281 219.195312 380.035156 225.566406 379.523438 231.957031 C 379.011719 238.347656 373.21875 261.132812 374.992188 268.882812 C 375.105469 269.347656 375.1875 269.8125 375.246094 270.285156 L 374.191406 270.285156 C 374.101562 270.140625 374.011719 269.996094 373.914062 269.835938 C 368.339844 260.328125 364.652344 231.113281 371.4375 224.210938 Z M 371.4375 224.210938 " fill-opacity="1" fill-rule="evenodd"/><path fill="#181a44" d="M 374.355469 270.285156 C 368.09375 252.515625 374.777344 225.445312 374.800781 225.355469 C 374.800781 225.265625 374.839844 225.191406 374.914062 225.132812 C 374.988281 225.078125 375.066406 225.058594 375.15625 225.082031 C 375.246094 225.105469 375.3125 225.15625 375.351562 225.238281 C 375.390625 225.324219 375.390625 225.40625 375.351562 225.488281 C 375.328125 225.574219 368.625 252.707031 374.949219 270.285156 Z M 374.355469 270.285156 " fill-opacity="1" fill-rule="evenodd"/><path fill="#9792ff" d="M 383.601562 235.257812 C 388.792969 232.511719 390.105469 238.507812 388.082031 243.46875 C 386.1875 248.097656 377.023438 262.945312 375.363281 270.285156 L 373.710938 270.285156 C 372.585938 260.179688 376.914062 238.796875 383.601562 235.257812 Z M 383.601562 235.257812 " fill-opacity="1" fill-rule="evenodd"/><path fill="#181a44" d="M 374.28125 270.285156 C 374.96875 255.003906 385.949219 237.078125 385.988281 237.019531 C 386.070312 236.882812 386.175781 236.859375 386.3125 236.9375 C 386.445312 237.019531 386.472656 237.128906 386.390625 237.261719 C 386.355469 237.324219 375.433594 255.15625 374.753906 270.285156 Z M 374.28125 270.285156 " fill-opacity="1" fill-rule="evenodd"/><path fill="#9792ff" d="M 361.644531 242.191406 C 356.609375 239.992188 355.8125 245.675781 358.046875 250.15625 C 359.777344 253.621094 366.644531 263.253906 370.128906 270.285156 L 373.199219 270.285156 C 372.308594 260.128906 367.339844 244.675781 361.644531 242.191406 Z M 361.644531 242.191406 " fill-opacity="1" fill-rule="evenodd"/><path fill="#181a44" d="M 372.101562 270.285156 C 369.085938 257.226562 359.582031 244.046875 359.542969 244 C 359.460938 243.878906 359.355469 243.863281 359.238281 243.949219 C 359.117188 244.03125 359.101562 244.136719 359.183594 244.253906 C 359.21875 244.304688 368.640625 257.367188 371.652344 270.289062 Z M 372.101562 270.285156 " fill-opacity="1" fill-rule="evenodd"/><path fill="#292a72" d="M 361.0625 265.097656 L 365.707031 282.882812 L 379.84375 282.882812 L 384.117188 265.097656 Z M 361.0625 265.097656 " fill-opacity="1" fill-rule="nonzero"/><path fill="#181a44" d="M 384.382812 265.796875 L 360.628906 265.796875 C 360.445312 265.789062 360.285156 265.714844 360.15625 265.582031 C 360.027344 265.445312 359.964844 265.285156 359.964844 265.097656 C 359.964844 264.910156 360.027344 264.75 360.15625 264.617188 C 360.285156 264.480469 360.445312 264.410156 360.628906 264.402344 L 384.382812 264.402344 C 384.582031 264.390625 384.753906 264.457031 384.898438 264.59375 C 385.042969 264.730469 385.113281 264.898438 385.113281 265.097656 C 385.113281 265.296875 385.042969 265.464844 384.898438 265.605469 C 384.753906 265.742188 384.582031 265.804688 384.382812 265.796875 Z M 384.382812 265.796875 " fill-opacity="1" fill-rule="nonzero"/><path fill="#6858f7" d="M 377.730469 113.238281 C 377.667969 113.652344 377.527344 114.039062 377.3125 114.398438 C 377.097656 114.757812 376.820312 115.0625 376.480469 115.3125 C 376.144531 115.5625 375.769531 115.738281 375.363281 115.839844 C 374.953125 115.941406 374.542969 115.960938 374.125 115.902344 C 373.710938 115.839844 373.324219 115.699219 372.960938 115.484375 C 372.601562 115.265625 372.296875 114.988281 372.046875 114.652344 C 371.796875 114.316406 371.621094 113.941406 371.519531 113.535156 C 371.417969 113.128906 371.398438 112.714844 371.460938 112.300781 C 371.519531 111.886719 371.660156 111.496094 371.878906 111.136719 C 372.09375 110.777344 372.371094 110.472656 372.710938 110.222656 C 373.046875 109.972656 373.421875 109.796875 373.828125 109.695312 C 374.234375 109.59375 374.648438 109.574219 375.0625 109.636719 C 375.480469 109.699219 375.867188 109.839844 376.226562 110.054688 C 376.585938 110.273438 376.894531 110.546875 377.144531 110.886719 C 377.394531 111.222656 377.570312 111.59375 377.671875 112.003906 C 377.773438 112.410156 377.792969 112.820312 377.730469 113.238281 Z M 377.730469 113.238281 " fill-opacity="1" fill-rule="nonzero"/><path fill="#ffffff" d="M 374.074219 114.367188 C 374.039062 114.347656 374.007812 114.320312 373.980469 114.285156 L 372.925781 112.90625 C 372.871094 112.832031 372.851562 112.75 372.863281 112.660156 C 372.875 112.566406 372.917969 112.492188 372.992188 112.4375 C 373.066406 112.382812 373.148438 112.359375 373.238281 112.371094 C 373.332031 112.382812 373.40625 112.425781 373.460938 112.5 L 374.28125 113.574219 L 375.992188 111.867188 C 376.058594 111.800781 376.136719 111.769531 376.230469 111.769531 C 376.324219 111.769531 376.402344 111.804688 376.46875 111.867188 C 376.535156 111.933594 376.566406 112.015625 376.566406 112.105469 C 376.566406 112.199219 376.535156 112.277344 376.46875 112.34375 L 374.488281 114.320312 C 374.414062 114.390625 374.328125 114.425781 374.226562 114.417969 C 374.171875 114.414062 374.121094 114.398438 374.074219 114.367188 Z M 374.074219 114.367188 " fill-opacity="1" fill-rule="nonzero"/><path fill="#6858f7" d="M 238.832031 60.546875 C 238.789062 60.847656 238.714844 61.144531 238.609375 61.429688 C 238.507812 61.71875 238.375 61.996094 238.21875 62.257812 C 238.0625 62.519531 237.878906 62.761719 237.675781 62.988281 C 237.46875 63.214844 237.242188 63.421875 236.996094 63.601562 C 236.75 63.785156 236.488281 63.941406 236.210938 64.070312 C 235.933594 64.203125 235.648438 64.304688 235.351562 64.378906 C 235.054688 64.453125 234.75 64.496094 234.445312 64.511719 C 234.140625 64.523438 233.835938 64.511719 233.53125 64.464844 C 233.230469 64.417969 232.933594 64.34375 232.644531 64.242188 C 232.359375 64.140625 232.082031 64.007812 231.820312 63.851562 C 231.558594 63.695312 231.3125 63.511719 231.085938 63.304688 C 230.859375 63.101562 230.65625 62.875 230.472656 62.628906 C 230.289062 62.382812 230.132812 62.121094 230.003906 61.847656 C 229.875 61.570312 229.769531 61.28125 229.695312 60.984375 C 229.621094 60.6875 229.578125 60.386719 229.5625 60.082031 C 229.546875 59.777344 229.5625 59.472656 229.609375 59.171875 C 229.65625 58.867188 229.730469 58.574219 229.832031 58.285156 C 229.9375 57.996094 230.066406 57.722656 230.222656 57.460938 C 230.382812 57.199219 230.5625 56.953125 230.769531 56.726562 C 230.976562 56.5 231.199219 56.296875 231.449219 56.113281 C 231.695312 55.933594 231.953125 55.777344 232.230469 55.644531 C 232.507812 55.515625 232.796875 55.414062 233.09375 55.339844 C 233.390625 55.265625 233.691406 55.222656 233.996094 55.207031 C 234.304688 55.191406 234.609375 55.207031 234.910156 55.253906 C 235.214844 55.296875 235.507812 55.371094 235.796875 55.476562 C 236.085938 55.578125 236.359375 55.707031 236.625 55.867188 C 236.886719 56.023438 237.128906 56.203125 237.355469 56.410156 C 237.582031 56.617188 237.789062 56.839844 237.96875 57.085938 C 238.152344 57.332031 238.308594 57.59375 238.441406 57.871094 C 238.570312 58.148438 238.671875 58.433594 238.746094 58.730469 C 238.820312 59.027344 238.863281 59.328125 238.878906 59.632812 C 238.894531 59.941406 238.878906 60.242188 238.832031 60.546875 Z M 238.832031 60.546875 " fill-opacity="1" fill-rule="nonzero"/><path fill="#ffffff" d="M 233.449219 62.222656 C 233.398438 62.1875 233.355469 62.148438 233.316406 62.101562 L 231.765625 60.074219 C 231.683594 59.96875 231.652344 59.84375 231.667969 59.710938 C 231.6875 59.574219 231.75 59.464844 231.859375 59.382812 C 231.96875 59.300781 232.089844 59.269531 232.222656 59.285156 C 232.359375 59.304688 232.46875 59.367188 232.550781 59.472656 L 233.761719 61.054688 L 236.277344 58.546875 C 236.371094 58.445312 236.488281 58.394531 236.628906 58.394531 C 236.769531 58.390625 236.886719 58.441406 236.984375 58.539062 C 237.082031 58.636719 237.132812 58.757812 237.128906 58.894531 C 237.128906 59.035156 237.078125 59.152344 236.976562 59.246094 L 234.0625 62.15625 C 233.957031 62.261719 233.828125 62.308594 233.679688 62.300781 C 233.59375 62.292969 233.519531 62.265625 233.449219 62.222656 Z M 233.449219 62.222656 " fill-opacity="1" fill-rule="nonzero"/><path fill="#6858f7" d="M 103.523438 67.949219 C 103.476562 68.261719 103.398438 68.566406 103.292969 68.863281 C 103.1875 69.160156 103.050781 69.441406 102.890625 69.714844 C 102.726562 69.984375 102.539062 70.234375 102.324219 70.46875 C 102.113281 70.703125 101.878906 70.914062 101.625 71.101562 C 101.371094 71.289062 101.101562 71.449219 100.816406 71.585938 C 100.53125 71.71875 100.234375 71.824219 99.929688 71.902344 C 99.621094 71.976562 99.3125 72.023438 98.996094 72.039062 C 98.679688 72.054688 98.367188 72.035156 98.054688 71.992188 C 97.742188 71.945312 97.4375 71.867188 97.140625 71.761719 C 96.84375 71.652344 96.558594 71.519531 96.289062 71.355469 C 96.015625 71.195312 95.765625 71.007812 95.53125 70.796875 C 95.296875 70.582031 95.085938 70.351562 94.898438 70.097656 C 94.710938 69.84375 94.546875 69.574219 94.414062 69.289062 C 94.277344 69.003906 94.171875 68.707031 94.097656 68.402344 C 94.019531 68.09375 93.976562 67.785156 93.960938 67.46875 C 93.945312 67.152344 93.960938 66.839844 94.007812 66.527344 C 94.054688 66.214844 94.128906 65.910156 94.238281 65.613281 C 94.34375 65.316406 94.476562 65.035156 94.640625 64.765625 C 94.804688 64.492188 94.992188 64.242188 95.203125 64.007812 C 95.414062 63.773438 95.648438 63.5625 95.902344 63.375 C 96.15625 63.1875 96.425781 63.027344 96.710938 62.890625 C 96.996094 62.757812 97.292969 62.652344 97.601562 62.574219 C 97.90625 62.5 98.21875 62.453125 98.535156 62.4375 C 98.847656 62.421875 99.164062 62.4375 99.476562 62.484375 C 99.789062 62.53125 100.09375 62.609375 100.390625 62.714844 C 100.6875 62.820312 100.972656 62.957031 101.242188 63.121094 C 101.511719 63.28125 101.765625 63.46875 102 63.679688 C 102.234375 63.894531 102.445312 64.125 102.632812 64.378906 C 102.820312 64.632812 102.980469 64.902344 103.117188 65.1875 C 103.25 65.472656 103.355469 65.769531 103.433594 66.074219 C 103.511719 66.382812 103.554688 66.691406 103.570312 67.007812 C 103.585938 67.324219 103.570312 67.636719 103.523438 67.949219 Z M 103.523438 67.949219 " fill-opacity="1" fill-rule="nonzero"/><path fill="#ffffff" d="M 97.972656 69.675781 C 97.914062 69.644531 97.867188 69.601562 97.824219 69.554688 L 96.222656 67.457031 C 96.136719 67.347656 96.105469 67.21875 96.125 67.082031 C 96.140625 66.941406 96.207031 66.828125 96.320312 66.742188 C 96.433594 66.65625 96.558594 66.625 96.699219 66.640625 C 96.839844 66.660156 96.949219 66.726562 97.035156 66.839844 L 98.285156 68.46875 L 100.878906 65.882812 C 100.980469 65.78125 101.097656 65.730469 101.242188 65.730469 C 101.382812 65.730469 101.503906 65.78125 101.601562 65.882812 C 101.703125 65.980469 101.753906 66.101562 101.753906 66.242188 C 101.753906 66.386719 101.703125 66.503906 101.601562 66.605469 L 98.601562 69.605469 C 98.492188 69.710938 98.359375 69.761719 98.207031 69.75 C 98.121094 69.742188 98.042969 69.71875 97.972656 69.675781 Z M 97.972656 69.675781 " fill-opacity="1" fill-rule="nonzero"/><g clip-path="url(#1217b2dfbe)"><path fill="#6858f7" d="M 62.015625 180.941406 C 61.96875 181.253906 61.890625 181.558594 61.785156 181.855469 C 61.679688 182.152344 61.542969 182.4375 61.382812 182.707031 C 61.21875 182.976562 61.03125 183.230469 60.820312 183.464844 C 60.605469 183.695312 60.375 183.90625 60.121094 184.09375 C 59.867188 184.28125 59.59375 184.445312 59.308594 184.578125 C 59.023438 184.714844 58.726562 184.820312 58.421875 184.894531 C 58.113281 184.972656 57.804688 185.015625 57.488281 185.03125 C 57.171875 185.046875 56.859375 185.03125 56.546875 184.984375 C 56.234375 184.9375 55.929688 184.863281 55.632812 184.753906 C 55.335938 184.648438 55.050781 184.515625 54.78125 184.351562 C 54.507812 184.191406 54.257812 184.003906 54.023438 183.789062 C 53.789062 183.578125 53.578125 183.34375 53.390625 183.089844 C 53.203125 182.839844 53.039062 182.570312 52.90625 182.28125 C 52.769531 181.996094 52.664062 181.703125 52.589844 181.394531 C 52.511719 181.089844 52.464844 180.777344 52.453125 180.464844 C 52.4375 180.148438 52.453125 179.835938 52.5 179.523438 C 52.546875 179.210938 52.621094 178.90625 52.730469 178.609375 C 52.835938 178.3125 52.96875 178.027344 53.132812 177.757812 C 53.296875 177.488281 53.484375 177.234375 53.695312 177.003906 C 53.90625 176.769531 54.140625 176.558594 54.394531 176.371094 C 54.648438 176.183594 54.917969 176.023438 55.203125 175.886719 C 55.488281 175.753906 55.785156 175.648438 56.09375 175.570312 C 56.398438 175.496094 56.710938 175.449219 57.027344 175.433594 C 57.339844 175.417969 57.65625 175.433594 57.96875 175.480469 C 58.28125 175.527344 58.585938 175.605469 58.882812 175.710938 C 59.179688 175.816406 59.464844 175.953125 59.734375 176.113281 C 60.003906 176.277344 60.257812 176.464844 60.492188 176.675781 C 60.726562 176.886719 60.9375 177.121094 61.125 177.375 C 61.3125 177.628906 61.472656 177.898438 61.609375 178.183594 C 61.742188 178.46875 61.847656 178.761719 61.925781 179.070312 C 62 179.375 62.046875 179.6875 62.0625 180 C 62.078125 180.316406 62.0625 180.628906 62.015625 180.941406 Z M 62.015625 180.941406 " fill-opacity="1" fill-rule="nonzero"/></g><path fill="#ffffff" d="M 56.460938 182.664062 C 56.410156 182.632812 56.363281 182.589844 56.324219 182.539062 L 54.722656 180.453125 C 54.636719 180.339844 54.605469 180.214844 54.621094 180.074219 C 54.640625 179.9375 54.707031 179.824219 54.820312 179.738281 C 54.929688 179.652344 55.058594 179.617188 55.195312 179.636719 C 55.335938 179.65625 55.449219 179.722656 55.535156 179.832031 L 56.789062 181.464844 L 59.378906 178.875 C 59.480469 178.777344 59.601562 178.726562 59.742188 178.726562 C 59.882812 178.726562 60.003906 178.777344 60.105469 178.875 C 60.203125 178.976562 60.253906 179.09375 60.253906 179.238281 C 60.253906 179.378906 60.203125 179.5 60.105469 179.597656 L 57.09375 182.597656 C 56.984375 182.703125 56.851562 182.753906 56.699219 182.742188 C 56.613281 182.734375 56.535156 182.710938 56.460938 182.664062 Z M 56.460938 182.664062 " fill-opacity="1" fill-rule="nonzero"/><path fill="#6858f7" d="M 365.160156 196.304688 C 365.113281 196.621094 365.035156 196.925781 364.929688 197.226562 C 364.820312 197.527344 364.683594 197.816406 364.519531 198.089844 C 364.355469 198.359375 364.164062 198.617188 363.953125 198.851562 C 363.738281 199.089844 363.5 199.300781 363.246094 199.492188 C 362.988281 199.679688 362.714844 199.84375 362.425781 199.980469 C 362.136719 200.113281 361.839844 200.222656 361.527344 200.296875 C 361.21875 200.375 360.90625 200.421875 360.585938 200.4375 C 360.265625 200.453125 359.949219 200.4375 359.632812 200.390625 C 359.316406 200.34375 359.011719 200.265625 358.710938 200.15625 C 358.410156 200.050781 358.121094 199.914062 357.847656 199.75 C 357.574219 199.585938 357.320312 199.394531 357.082031 199.183594 C 356.847656 198.96875 356.632812 198.730469 356.445312 198.476562 C 356.253906 198.21875 356.089844 197.945312 355.957031 197.660156 C 355.820312 197.371094 355.710938 197.070312 355.636719 196.761719 C 355.558594 196.453125 355.511719 196.140625 355.496094 195.820312 C 355.480469 195.503906 355.496094 195.183594 355.542969 194.871094 C 355.589844 194.554688 355.667969 194.246094 355.777344 193.945312 C 355.882812 193.648438 356.019531 193.359375 356.183594 193.085938 C 356.347656 192.8125 356.539062 192.558594 356.753906 192.324219 C 356.96875 192.085938 357.203125 191.875 357.460938 191.683594 C 357.71875 191.496094 357.988281 191.332031 358.277344 191.195312 C 358.566406 191.058594 358.867188 190.953125 359.175781 190.875 C 359.484375 190.800781 359.800781 190.753906 360.117188 190.738281 C 360.4375 190.722656 360.753906 190.738281 361.070312 190.785156 C 361.386719 190.832031 361.695312 190.910156 361.996094 191.019531 C 362.296875 191.125 362.582031 191.261719 362.855469 191.425781 C 363.128906 191.589844 363.382812 191.777344 363.621094 191.992188 C 363.855469 192.207031 364.070312 192.441406 364.261719 192.699219 C 364.449219 192.957031 364.613281 193.226562 364.75 193.515625 C 364.886719 193.804688 364.992188 194.101562 365.070312 194.414062 C 365.144531 194.722656 365.191406 195.035156 365.207031 195.355469 C 365.222656 195.671875 365.207031 195.988281 365.160156 196.304688 Z M 365.160156 196.304688 " fill-opacity="1" fill-rule="nonzero"/><path fill="#ffffff" d="M 359.550781 198.050781 C 359.492188 198.019531 359.445312 197.976562 359.40625 197.925781 L 357.785156 195.808594 C 357.691406 195.695312 357.652344 195.566406 357.671875 195.421875 C 357.6875 195.277344 357.753906 195.160156 357.871094 195.070312 C 357.988281 194.980469 358.117188 194.949219 358.261719 194.96875 C 358.410156 194.992188 358.523438 195.0625 358.609375 195.183594 L 359.867188 196.832031 L 362.488281 194.214844 C 362.585938 194.097656 362.710938 194.035156 362.867188 194.03125 C 363.019531 194.023438 363.148438 194.074219 363.253906 194.183594 C 363.363281 194.292969 363.414062 194.421875 363.402344 194.574219 C 363.394531 194.726562 363.332031 194.851562 363.214844 194.945312 L 360.171875 197.984375 C 359.980469 198.175781 359.769531 198.199219 359.539062 198.058594 Z M 359.550781 198.050781 " fill-opacity="1" fill-rule="nonzero"/><path fill="#f0426a" d="M 304.34375 71.625 C 304.074219 71.625 303.839844 71.527344 303.648438 71.335938 C 303.457031 71.144531 303.359375 70.910156 303.359375 70.640625 L 303.359375 63.695312 C 303.359375 63.425781 303.453125 63.191406 303.648438 63 C 303.839844 62.808594 304.074219 62.710938 304.34375 62.710938 C 304.617188 62.710938 304.851562 62.808594 305.042969 63 C 305.234375 63.191406 305.332031 63.425781 305.332031 63.695312 L 305.332031 70.640625 C 305.332031 70.910156 305.234375 71.144531 305.042969 71.335938 C 304.851562 71.527344 304.617188 71.625 304.34375 71.625 Z M 304.34375 71.625 " fill-opacity="1" fill-rule="nonzero"/><path fill="#f0426a" d="M 307.824219 68.148438 L 300.871094 68.148438 C 300.738281 68.15625 300.609375 68.132812 300.484375 68.085938 C 300.359375 68.039062 300.246094 67.96875 300.148438 67.875 C 300.054688 67.78125 299.980469 67.675781 299.925781 67.550781 C 299.875 67.429688 299.847656 67.300781 299.847656 67.164062 C 299.847656 67.03125 299.875 66.902344 299.925781 66.78125 C 299.980469 66.65625 300.054688 66.546875 300.148438 66.457031 C 300.246094 66.363281 300.359375 66.292969 300.484375 66.246094 C 300.609375 66.199219 300.738281 66.175781 300.871094 66.179688 L 307.824219 66.179688 C 307.957031 66.175781 308.085938 66.199219 308.210938 66.246094 C 308.335938 66.292969 308.449219 66.363281 308.546875 66.457031 C 308.640625 66.546875 308.714844 66.65625 308.769531 66.78125 C 308.820312 66.902344 308.847656 67.03125 308.847656 67.164062 C 308.847656 67.300781 308.820312 67.429688 308.769531 67.550781 C 308.714844 67.675781 308.640625 67.78125 308.546875 67.875 C 308.449219 67.96875 308.335938 68.039062 308.210938 68.085938 C 308.085938 68.132812 307.957031 68.15625 307.824219 68.148438 Z M 307.824219 68.148438 " fill-opacity="1" fill-rule="nonzero"/><path fill="#f0426a" d="M 90.679688 135.15625 C 90.429688 135.15625 90.214844 135.066406 90.039062 134.890625 C 89.863281 134.714844 89.773438 134.503906 89.773438 134.253906 L 89.773438 127.878906 C 89.773438 127.628906 89.863281 127.417969 90.039062 127.242188 C 90.214844 127.066406 90.429688 126.976562 90.679688 126.976562 C 90.929688 126.976562 91.140625 127.066406 91.316406 127.242188 C 91.496094 127.417969 91.582031 127.628906 91.582031 127.878906 L 91.582031 134.253906 C 91.582031 134.503906 91.496094 134.714844 91.316406 134.890625 C 91.140625 135.066406 90.929688 135.15625 90.679688 135.15625 Z M 90.679688 135.15625 " fill-opacity="1" fill-rule="nonzero"/><path fill="#f0426a" d="M 93.863281 131.96875 L 87.492188 131.96875 C 87.242188 131.96875 87.027344 131.878906 86.851562 131.703125 C 86.675781 131.527344 86.585938 131.3125 86.585938 131.0625 C 86.585938 130.816406 86.675781 130.601562 86.851562 130.425781 C 87.027344 130.246094 87.242188 130.160156 87.492188 130.160156 L 93.863281 130.160156 C 93.988281 130.15625 94.105469 130.175781 94.222656 130.21875 C 94.335938 130.261719 94.441406 130.324219 94.527344 130.410156 C 94.617188 130.496094 94.6875 130.59375 94.734375 130.707031 C 94.78125 130.820312 94.804688 130.941406 94.804688 131.0625 C 94.804688 131.1875 94.78125 131.304688 94.734375 131.417969 C 94.6875 131.53125 94.617188 131.628906 94.527344 131.714844 C 94.441406 131.800781 94.335938 131.863281 94.222656 131.90625 C 94.105469 131.953125 93.988281 131.972656 93.863281 131.964844 Z M 93.863281 131.96875 " fill-opacity="1" fill-rule="nonzero"/><path fill="#f0426a" d="M 79.09375 242.191406 C 78.84375 242.191406 78.628906 242.101562 78.453125 241.925781 C 78.277344 241.75 78.1875 241.539062 78.1875 241.289062 L 78.1875 234.914062 C 78.1875 234.667969 78.277344 234.453125 78.453125 234.277344 C 78.628906 234.101562 78.84375 234.011719 79.09375 234.011719 C 79.34375 234.011719 79.554688 234.101562 79.730469 234.277344 C 79.910156 234.453125 79.996094 234.667969 79.996094 234.914062 L 79.996094 241.289062 C 79.996094 241.539062 79.910156 241.75 79.730469 241.925781 C 79.554688 242.101562 79.34375 242.191406 79.09375 242.191406 Z M 79.09375 242.191406 " fill-opacity="1" fill-rule="nonzero"/><path fill="#f0426a" d="M 82.277344 239.003906 L 75.90625 239.003906 C 75.785156 239.007812 75.664062 238.988281 75.550781 238.945312 C 75.433594 238.902344 75.332031 238.839844 75.242188 238.753906 C 75.15625 238.667969 75.085938 238.570312 75.039062 238.457031 C 74.988281 238.34375 74.964844 238.222656 74.964844 238.101562 C 74.964844 237.976562 74.988281 237.859375 75.039062 237.746094 C 75.085938 237.632812 75.15625 237.535156 75.242188 237.449219 C 75.332031 237.363281 75.433594 237.300781 75.550781 237.257812 C 75.664062 237.210938 75.785156 237.191406 75.90625 237.199219 L 82.277344 237.199219 C 82.402344 237.191406 82.519531 237.210938 82.636719 237.257812 C 82.75 237.300781 82.855469 237.363281 82.941406 237.449219 C 83.03125 237.535156 83.101562 237.632812 83.148438 237.746094 C 83.195312 237.859375 83.21875 237.976562 83.21875 238.101562 C 83.21875 238.222656 83.195312 238.34375 83.148438 238.457031 C 83.101562 238.570312 83.03125 238.667969 82.941406 238.753906 C 82.855469 238.839844 82.75 238.902344 82.636719 238.945312 C 82.519531 238.988281 82.402344 239.007812 82.277344 239.003906 Z M 82.277344 239.003906 " fill-opacity="1" fill-rule="nonzero"/><g clip-path="url(#ffe317fceb)"><path fill="#f0426a" d="M 365.84375 52.277344 C 365.59375 52.277344 365.382812 52.1875 365.207031 52.011719 C 365.027344 51.835938 364.941406 51.621094 364.941406 51.371094 L 364.941406 45 C 364.941406 44.75 365.027344 44.539062 365.207031 44.363281 C 365.382812 44.183594 365.59375 44.097656 365.84375 44.097656 C 366.09375 44.097656 366.308594 44.183594 366.484375 44.363281 C 366.660156 44.539062 366.746094 44.75 366.746094 45 L 366.746094 51.371094 C 366.746094 51.621094 366.660156 51.835938 366.484375 52.011719 C 366.308594 52.1875 366.09375 52.277344 365.84375 52.277344 Z M 365.84375 52.277344 " fill-opacity="1" fill-rule="nonzero"/></g><path fill="#f0426a" d="M 369.03125 49.089844 L 362.65625 49.089844 C 362.40625 49.089844 362.195312 49 362.019531 48.824219 C 361.839844 48.648438 361.753906 48.433594 361.753906 48.183594 C 361.753906 47.933594 361.839844 47.722656 362.019531 47.542969 C 362.195312 47.367188 362.40625 47.28125 362.65625 47.28125 L 369.03125 47.28125 C 369.152344 47.273438 369.273438 47.292969 369.386719 47.335938 C 369.503906 47.382812 369.605469 47.445312 369.695312 47.53125 C 369.78125 47.617188 369.851562 47.714844 369.898438 47.828125 C 369.949219 47.941406 369.972656 48.058594 369.972656 48.183594 C 369.972656 48.304688 369.949219 48.425781 369.898438 48.535156 C 369.851562 48.648438 369.78125 48.75 369.695312 48.835938 C 369.605469 48.921875 369.503906 48.984375 369.386719 49.027344 C 369.273438 49.070312 369.152344 49.089844 369.03125 49.085938 Z M 369.03125 49.089844 " fill-opacity="1" fill-rule="nonzero"/><path fill="#f0426a" d="M 155.660156 81.203125 C 155.386719 81.203125 155.152344 81.109375 154.960938 80.914062 C 154.769531 80.722656 154.671875 80.492188 154.671875 80.21875 L 154.671875 73.277344 C 154.671875 73.003906 154.769531 72.773438 154.960938 72.578125 C 155.152344 72.386719 155.386719 72.292969 155.660156 72.292969 C 155.929688 72.292969 156.164062 72.386719 156.355469 72.578125 C 156.546875 72.773438 156.644531 73.003906 156.644531 73.277344 L 156.644531 80.21875 C 156.644531 80.492188 156.546875 80.722656 156.355469 80.914062 C 156.164062 81.109375 155.929688 81.203125 155.660156 81.203125 Z M 155.660156 81.203125 " fill-opacity="1" fill-rule="nonzero"/><path fill="#f0426a" d="M 159.136719 77.730469 L 152.1875 77.730469 C 151.914062 77.730469 151.679688 77.636719 151.488281 77.441406 C 151.296875 77.25 151.199219 77.019531 151.199219 76.746094 C 151.199219 76.472656 151.296875 76.242188 151.488281 76.050781 C 151.679688 75.855469 151.914062 75.761719 152.1875 75.761719 L 159.136719 75.761719 C 159.410156 75.761719 159.640625 75.855469 159.835938 76.050781 C 160.027344 76.242188 160.125 76.472656 160.125 76.746094 C 160.125 77.019531 160.027344 77.25 159.835938 77.441406 C 159.640625 77.636719 159.410156 77.730469 159.136719 77.730469 Z M 159.136719 77.730469 " fill-opacity="1" fill-rule="nonzero"/><g clip-path="url(#4653e2c151)"><path fill="#fbb03b" d="M 464.984375 168.535156 C 455.011719 168.535156 444.632812 166.609375 434.46875 162.777344 C 424.300781 158.949219 411.070312 151.664062 405.707031 138.710938 C 401.296875 128.070312 403.113281 116.0625 405.726562 104.675781 C 406 103.5 406.277344 102.308594 406.5625 101.109375 C 408.914062 91.171875 411.320312 80.894531 409.660156 70.832031 C 409.351562 68.949219 408.890625 67.042969 408.445312 65.199219 C 407.566406 61.53125 406.644531 57.746094 406.855469 53.910156 C 407.023438 51.207031 407.683594 48.628906 408.84375 46.179688 C 410.75 42.058594 413.878906 38.332031 417.890625 35.371094 C 426.707031 28.867188 438.386719 26.015625 448.367188 27.929688 C 456.390625 29.460938 462.871094 33.863281 467.125 40.660156 C 469.203125 43.984375 470.617188 47.753906 471.988281 51.394531 C 473.828125 56.289062 475.730469 61.351562 479.242188 65.246094 C 483.375 69.832031 489.253906 72.3125 494.941406 74.691406 C 498.078125 76.007812 501.320312 77.371094 504.277344 79.082031 C 512.292969 83.714844 518.640625 91.445312 522.152344 100.800781 C 525.605469 110.007812 526.0625 120.023438 523.449219 129.007812 C 518.671875 145.433594 504.636719 159.285156 486.820312 165.15625 C 479.722656 167.453125 472.445312 168.578125 464.984375 168.535156 Z M 442.035156 27.929688 C 433.828125 27.929688 425.144531 30.75 418.242188 35.84375 C 414.304688 38.746094 411.242188 42.402344 409.375 46.417969 C 408.25 48.800781 407.609375 51.3125 407.449219 53.945312 C 407.246094 57.6875 408.148438 61.4375 409.027344 65.0625 C 409.472656 66.914062 409.9375 68.832031 410.25 70.734375 C 411.917969 80.917969 409.484375 91.25 407.132812 101.242188 C 406.855469 102.433594 406.578125 103.621094 406.300781 104.808594 C 403.707031 116.101562 401.90625 127.996094 406.246094 138.484375 C 411.539062 151.246094 424.625 158.4375 434.675781 162.222656 C 452.46875 168.933594 470.917969 169.773438 486.621094 164.597656 C 504.257812 158.785156 518.144531 145.085938 522.871094 128.847656 L 523.164062 128.929688 L 522.871094 128.847656 C 528.3125 110.144531 520.183594 88.96875 503.96875 79.589844 C 501.042969 77.898438 497.820312 76.542969 494.699219 75.234375 C 488.953125 72.820312 483.011719 70.324219 478.789062 65.640625 C 475.203125 61.664062 473.28125 56.546875 471.421875 51.601562 C 470.0625 47.984375 468.65625 44.242188 466.613281 40.972656 C 462.460938 34.320312 456.113281 30.007812 448.257812 28.519531 C 446.203125 28.128906 444.128906 27.929688 442.035156 27.929688 Z M 442.035156 27.929688 " fill-opacity="1" fill-rule="nonzero"/></g><g clip-path="url(#b7ffc8babf)"><path fill="#fbb03b" d="M -7.664062 273.101562 C -17.636719 273.101562 -28.015625 271.171875 -38.179688 267.34375 C -48.34375 263.511719 -61.578125 256.226562 -66.941406 243.273438 C -71.351562 232.632812 -69.535156 220.625 -66.921875 209.238281 C -66.648438 208.0625 -66.371094 206.875 -66.085938 205.671875 C -63.734375 195.734375 -61.328125 185.460938 -62.988281 175.394531 C -63.296875 173.511719 -63.757812 171.609375 -64.199219 169.765625 C -65.082031 166.097656 -66.003906 162.308594 -65.792969 158.476562 C -65.625 155.769531 -64.964844 153.195312 -63.804688 150.746094 C -61.898438 146.625 -58.769531 142.894531 -54.757812 139.933594 C -45.941406 133.429688 -34.261719 130.578125 -24.277344 132.496094 C -16.257812 134.027344 -9.777344 138.425781 -5.523438 145.222656 C -3.445312 148.550781 -2.027344 152.316406 -0.660156 155.960938 C 1.179688 160.851562 3.082031 165.914062 6.597656 169.8125 C 10.730469 174.394531 16.609375 176.878906 22.292969 179.253906 C 25.429688 180.570312 28.671875 181.933594 31.628906 183.644531 C 39.644531 188.28125 45.992188 196.007812 49.503906 205.367188 C 52.957031 214.570312 53.414062 224.589844 50.800781 233.574219 C 46.023438 249.996094 31.988281 263.847656 14.175781 269.722656 C 7.074219 272.015625 -0.203125 273.140625 -7.664062 273.101562 Z M -30.613281 132.496094 C -38.820312 132.496094 -47.5 135.316406 -54.40625 140.40625 C -58.34375 143.308594 -61.40625 146.964844 -63.273438 150.980469 C -64.398438 153.367188 -65.039062 155.875 -65.199219 158.507812 C -65.402344 162.253906 -64.5 166 -63.621094 169.625 C -63.175781 171.476562 -62.710938 173.394531 -62.394531 175.300781 C -60.730469 185.480469 -63.164062 195.8125 -65.515625 205.808594 C -65.792969 206.996094 -66.070312 208.183594 -66.347656 209.371094 C -68.941406 220.664062 -70.742188 232.558594 -66.398438 243.046875 C -61.109375 255.808594 -48.023438 263.003906 -37.972656 266.789062 C -20.179688 273.496094 -1.730469 274.335938 13.972656 269.160156 C 31.613281 263.351562 45.5 249.652344 50.222656 233.410156 L 50.515625 233.492188 L 50.222656 233.410156 C 55.664062 214.710938 47.535156 193.53125 31.320312 184.152344 C 28.394531 182.464844 25.171875 181.105469 22.050781 179.796875 C 16.304688 177.382812 10.363281 174.886719 6.144531 170.203125 C 2.558594 166.226562 0.632812 161.109375 -1.226562 156.164062 C -2.585938 152.550781 -3.988281 148.804688 -6.035156 145.535156 C -10.1875 138.882812 -16.53125 134.574219 -24.390625 133.082031 C -26.445312 132.691406 -28.519531 132.496094 -30.613281 132.496094 Z M -30.613281 132.496094 " fill-opacity="1" fill-rule="nonzero"/></g><path stroke-linecap="butt" transform="matrix(0.74889, 0, 0, 0.74889, 34.032916, 33.700072)" fill="none" stroke-linejoin="miter" d="M -0.00222413 2.001824 L 93.813645 2.001824 " stroke="#fbb03b" stroke-width="4" stroke-opacity="1" stroke-miterlimit="4"/><path stroke-linecap="butt" transform="matrix(0.74889, 0, 0, 0.74889, 345.712362, 300.305087)" fill="none" stroke-linejoin="miter" d="M -0.00190197 2.00243 L 93.813968 2.00243 " stroke="#fbb03b" stroke-width="4" stroke-opacity="1" stroke-miterlimit="4"/></svg>